ISO-10303-21;
HEADER;
/* Generated by software containing ST-Developer
 * from STEP Tools, Inc. (www.steptools.com) 
 */

FILE_DESCRIPTION(
/* description */ (''),
/* implementation_level */ '2;1');

FILE_NAME(
/* name */ 'krabka_BP_rev3.step',
/* time_stamp */ '2026-01-06T11:20:20+01:00',
/* author */ (''),
/* organization */ (''),
/* preprocessor_version */ 'ST-DEVELOPER v20.1',
/* originating_system */ 'Autodesk Translation Framework v14.21.0.0',
/* authorisation */ '');

FILE_SCHEMA (('AUTOMOTIVE_DESIGN { 1 0 10303 214 3 1 1 }'));
ENDSEC;

DATA;
#10=MECHANICAL_DESIGN_GEOMETRIC_PRESENTATION_REPRESENTATION('',(#13),#1810);
#11=SHAPE_REPRESENTATION_RELATIONSHIP('SRR','None',#1816,#12);
#12=ADVANCED_BREP_SHAPE_REPRESENTATION('',(#14),#1809);
#13=STYLED_ITEM('',(#1825),#14);
#14=MANIFOLD_SOLID_BREP('Body1',#1130);
#15=FACE_BOUND('',#127,.T.);
#16=FACE_BOUND('',#155,.T.);
#17=FACE_BOUND('',#176,.T.);
#18=FACE_BOUND('',#178,.T.);
#19=PLANE('',#1135);
#20=PLANE('',#1136);
#21=PLANE('',#1137);
#22=PLANE('',#1138);
#23=PLANE('',#1139);
#24=PLANE('',#1143);
#25=PLANE('',#1150);
#26=PLANE('',#1154);
#27=PLANE('',#1158);
#28=PLANE('',#1162);
#29=PLANE('',#1163);
#30=PLANE('',#1164);
#31=PLANE('',#1165);
#32=PLANE('',#1166);
#33=PLANE('',#1167);
#34=PLANE('',#1168);
#35=PLANE('',#1169);
#36=PLANE('',#1170);
#37=PLANE('',#1171);
#38=PLANE('',#1172);
#39=PLANE('',#1173);
#40=PLANE('',#1174);
#41=PLANE('',#1175);
#42=PLANE('',#1176);
#43=PLANE('',#1177);
#44=PLANE('',#1178);
#45=PLANE('',#1179);
#46=PLANE('',#1180);
#47=PLANE('',#1181);
#48=PLANE('',#1182);
#49=PLANE('',#1183);
#50=PLANE('',#1184);
#51=PLANE('',#1185);
#52=PLANE('',#1186);
#53=PLANE('',#1187);
#54=PLANE('',#1188);
#55=PLANE('',#1189);
#56=PLANE('',#1190);
#57=PLANE('',#1191);
#58=PLANE('',#1192);
#59=PLANE('',#1193);
#60=PLANE('',#1194);
#61=PLANE('',#1195);
#62=PLANE('',#1196);
#63=PLANE('',#1197);
#64=PLANE('',#1198);
#65=PLANE('',#1199);
#66=PLANE('',#1200);
#67=FACE_OUTER_BOUND('',#122,.T.);
#68=FACE_OUTER_BOUND('',#123,.T.);
#69=FACE_OUTER_BOUND('',#124,.T.);
#70=FACE_OUTER_BOUND('',#125,.T.);
#71=FACE_OUTER_BOUND('',#126,.T.);
#72=FACE_OUTER_BOUND('',#128,.T.);
#73=FACE_OUTER_BOUND('',#129,.T.);
#74=FACE_OUTER_BOUND('',#130,.T.);
#75=FACE_OUTER_BOUND('',#131,.T.);
#76=FACE_OUTER_BOUND('',#132,.T.);
#77=FACE_OUTER_BOUND('',#133,.T.);
#78=FACE_OUTER_BOUND('',#134,.T.);
#79=FACE_OUTER_BOUND('',#135,.T.);
#80=FACE_OUTER_BOUND('',#136,.T.);
#81=FACE_OUTER_BOUND('',#137,.T.);
#82=FACE_OUTER_BOUND('',#138,.T.);
#83=FACE_OUTER_BOUND('',#139,.T.);
#84=FACE_OUTER_BOUND('',#140,.T.);
#85=FACE_OUTER_BOUND('',#141,.T.);
#86=FACE_OUTER_BOUND('',#142,.T.);
#87=FACE_OUTER_BOUND('',#143,.T.);
#88=FACE_OUTER_BOUND('',#144,.T.);
#89=FACE_OUTER_BOUND('',#145,.T.);
#90=FACE_OUTER_BOUND('',#146,.T.);
#91=FACE_OUTER_BOUND('',#147,.T.);
#92=FACE_OUTER_BOUND('',#148,.T.);
#93=FACE_OUTER_BOUND('',#149,.T.);
#94=FACE_OUTER_BOUND('',#150,.T.);
#95=FACE_OUTER_BOUND('',#151,.T.);
#96=FACE_OUTER_BOUND('',#152,.T.);
#97=FACE_OUTER_BOUND('',#153,.T.);
#98=FACE_OUTER_BOUND('',#154,.T.);
#99=FACE_OUTER_BOUND('',#156,.T.);
#100=FACE_OUTER_BOUND('',#157,.T.);
#101=FACE_OUTER_BOUND('',#158,.T.);
#102=FACE_OUTER_BOUND('',#159,.T.);
#103=FACE_OUTER_BOUND('',#160,.T.);
#104=FACE_OUTER_BOUND('',#161,.T.);
#105=FACE_OUTER_BOUND('',#162,.T.);
#106=FACE_OUTER_BOUND('',#163,.T.);
#107=FACE_OUTER_BOUND('',#164,.T.);
#108=FACE_OUTER_BOUND('',#165,.T.);
#109=FACE_OUTER_BOUND('',#166,.T.);
#110=FACE_OUTER_BOUND('',#167,.T.);
#111=FACE_OUTER_BOUND('',#168,.T.);
#112=FACE_OUTER_BOUND('',#169,.T.);
#113=FACE_OUTER_BOUND('',#170,.T.);
#114=FACE_OUTER_BOUND('',#171,.T.);
#115=FACE_OUTER_BOUND('',#172,.T.);
#116=FACE_OUTER_BOUND('',#173,.T.);
#117=FACE_OUTER_BOUND('',#174,.T.);
#118=FACE_OUTER_BOUND('',#175,.T.);
#119=FACE_OUTER_BOUND('',#177,.T.);
#120=FACE_OUTER_BOUND('',#179,.T.);
#121=FACE_OUTER_BOUND('',#180,.T.);
#122=EDGE_LOOP('',(#750,#751,#752,#753));
#123=EDGE_LOOP('',(#754,#755,#756,#757));
#124=EDGE_LOOP('',(#758,#759,#760,#761));
#125=EDGE_LOOP('',(#762,#763,#764,#765));
#126=EDGE_LOOP('',(#766,#767,#768,#769,#770,#771,#772,#773,#774,#775,#776,
#777));
#127=EDGE_LOOP('',(#778));
#128=EDGE_LOOP('',(#779,#780,#781,#782,#783,#784));
#129=EDGE_LOOP('',(#785,#786,#787,#788));
#130=EDGE_LOOP('',(#789,#790,#791,#792,#793,#794,#795,#796,#797,#798,#799,
#800,#801,#802,#803,#804,#805,#806,#807,#808,#809,#810,#811,#812));
#131=EDGE_LOOP('',(#813,#814,#815,#816));
#132=EDGE_LOOP('',(#817,#818,#819,#820));
#133=EDGE_LOOP('',(#821,#822,#823,#824));
#134=EDGE_LOOP('',(#825,#826,#827,#828));
#135=EDGE_LOOP('',(#829,#830,#831,#832));
#136=EDGE_LOOP('',(#833,#834,#835,#836));
#137=EDGE_LOOP('',(#837,#838,#839,#840));
#138=EDGE_LOOP('',(#841,#842,#843,#844));
#139=EDGE_LOOP('',(#845,#846,#847,#848));
#140=EDGE_LOOP('',(#849,#850,#851,#852));
#141=EDGE_LOOP('',(#853,#854,#855,#856));
#142=EDGE_LOOP('',(#857,#858,#859,#860,#861,#862,#863,#864));
#143=EDGE_LOOP('',(#865,#866,#867,#868));
#144=EDGE_LOOP('',(#869,#870,#871,#872));
#145=EDGE_LOOP('',(#873,#874,#875,#876,#877,#878,#879,#880));
#146=EDGE_LOOP('',(#881,#882,#883,#884));
#147=EDGE_LOOP('',(#885,#886,#887,#888));
#148=EDGE_LOOP('',(#889,#890,#891,#892));
#149=EDGE_LOOP('',(#893,#894,#895,#896));
#150=EDGE_LOOP('',(#897,#898,#899,#900));
#151=EDGE_LOOP('',(#901,#902,#903,#904));
#152=EDGE_LOOP('',(#905,#906,#907,#908));
#153=EDGE_LOOP('',(#909,#910,#911));
#154=EDGE_LOOP('',(#912,#913,#914,#915,#916,#917));
#155=EDGE_LOOP('',(#918,#919,#920,#921,#922,#923,#924,#925));
#156=EDGE_LOOP('',(#926,#927,#928,#929));
#157=EDGE_LOOP('',(#930,#931,#932));
#158=EDGE_LOOP('',(#933,#934,#935,#936));
#159=EDGE_LOOP('',(#937,#938,#939));
#160=EDGE_LOOP('',(#940,#941,#942,#943));
#161=EDGE_LOOP('',(#944,#945,#946));
#162=EDGE_LOOP('',(#947,#948,#949,#950,#951,#952,#953,#954));
#163=EDGE_LOOP('',(#955,#956,#957,#958,#959,#960,#961,#962));
#164=EDGE_LOOP('',(#963,#964,#965,#966,#967,#968,#969,#970));
#165=EDGE_LOOP('',(#971,#972,#973,#974));
#166=EDGE_LOOP('',(#975,#976,#977,#978,#979,#980));
#167=EDGE_LOOP('',(#981,#982,#983,#984));
#168=EDGE_LOOP('',(#985,#986,#987,#988));
#169=EDGE_LOOP('',(#989,#990,#991,#992,#993,#994,#995,#996));
#170=EDGE_LOOP('',(#997,#998,#999,#1000));
#171=EDGE_LOOP('',(#1001,#1002,#1003,#1004,#1005,#1006));
#172=EDGE_LOOP('',(#1007,#1008,#1009,#1010));
#173=EDGE_LOOP('',(#1011,#1012,#1013,#1014,#1015,#1016));
#174=EDGE_LOOP('',(#1017,#1018,#1019,#1020,#1021,#1022,#1023,#1024,#1025,
#1026,#1027,#1028));
#175=EDGE_LOOP('',(#1029,#1030,#1031,#1032,#1033,#1034,#1035,#1036));
#176=EDGE_LOOP('',(#1037));
#177=EDGE_LOOP('',(#1038,#1039,#1040,#1041,#1042,#1043,#1044,#1045,#1046,
#1047,#1048,#1049));
#178=EDGE_LOOP('',(#1050,#1051,#1052,#1053,#1054,#1055,#1056,#1057));
#179=EDGE_LOOP('',(#1058,#1059,#1060,#1061,#1062,#1063));
#180=EDGE_LOOP('',(#1064,#1065,#1066,#1067));
#181=LINE('',#1491,#326);
#182=LINE('',#1496,#327);
#183=LINE('',#1498,#328);
#184=LINE('',#1500,#329);
#185=LINE('',#1501,#330);
#186=LINE('',#1505,#331);
#187=LINE('',#1507,#332);
#188=LINE('',#1509,#333);
#189=LINE('',#1510,#334);
#190=LINE('',#1512,#335);
#191=LINE('',#1513,#336);
#192=LINE('',#1516,#337);
#193=LINE('',#1518,#338);
#194=LINE('',#1520,#339);
#195=LINE('',#1522,#340);
#196=LINE('',#1524,#341);
#197=LINE('',#1526,#342);
#198=LINE('',#1528,#343);
#199=LINE('',#1530,#344);
#200=LINE('',#1531,#345);
#201=LINE('',#1534,#346);
#202=LINE('',#1536,#347);
#203=LINE('',#1538,#348);
#204=LINE('',#1539,#349);
#205=LINE('',#1545,#350);
#206=LINE('',#1548,#351);
#207=LINE('',#1551,#352);
#208=LINE('',#1553,#353);
#209=LINE('',#1555,#354);
#210=LINE('',#1557,#355);
#211=LINE('',#1559,#356);
#212=LINE('',#1560,#357);
#213=LINE('',#1562,#358);
#214=LINE('',#1564,#359);
#215=LINE('',#1566,#360);
#216=LINE('',#1568,#361);
#217=LINE('',#1570,#362);
#218=LINE('',#1572,#363);
#219=LINE('',#1574,#364);
#220=LINE('',#1576,#365);
#221=LINE('',#1578,#366);
#222=LINE('',#1580,#367);
#223=LINE('',#1582,#368);
#224=LINE('',#1584,#369);
#225=LINE('',#1586,#370);
#226=LINE('',#1588,#371);
#227=LINE('',#1590,#372);
#228=LINE('',#1591,#373);
#229=LINE('',#1597,#374);
#230=LINE('',#1603,#375);
#231=LINE('',#1606,#376);
#232=LINE('',#1609,#377);
#233=LINE('',#1611,#378);
#234=LINE('',#1612,#379);
#235=LINE('',#1618,#380);
#236=LINE('',#1621,#381);
#237=LINE('',#1623,#382);
#238=LINE('',#1624,#383);
#239=LINE('',#1630,#384);
#240=LINE('',#1633,#385);
#241=LINE('',#1635,#386);
#242=LINE('',#1636,#387);
#243=LINE('',#1641,#388);
#244=LINE('',#1644,#389);
#245=LINE('',#1645,#390);
#246=LINE('',#1649,#391);
#247=LINE('',#1651,#392);
#248=LINE('',#1653,#393);
#249=LINE('',#1654,#394);
#250=LINE('',#1657,#395);
#251=LINE('',#1659,#396);
#252=LINE('',#1660,#397);
#253=LINE('',#1663,#398);
#254=LINE('',#1665,#399);
#255=LINE('',#1666,#400);
#256=LINE('',#1667,#401);
#257=LINE('',#1671,#402);
#258=LINE('',#1673,#403);
#259=LINE('',#1675,#404);
#260=LINE('',#1676,#405);
#261=LINE('',#1679,#406);
#262=LINE('',#1681,#407);
#263=LINE('',#1682,#408);
#264=LINE('',#1685,#409);
#265=LINE('',#1687,#410);
#266=LINE('',#1688,#411);
#267=LINE('',#1689,#412);
#268=LINE('',#1692,#413);
#269=LINE('',#1694,#414);
#270=LINE('',#1695,#415);
#271=LINE('',#1697,#416);
#272=LINE('',#1699,#417);
#273=LINE('',#1702,#418);
#274=LINE('',#1704,#419);
#275=LINE('',#1705,#420);
#276=LINE('',#1707,#421);
#277=LINE('',#1709,#422);
#278=LINE('',#1712,#423);
#279=LINE('',#1714,#424);
#280=LINE('',#1715,#425);
#281=LINE('',#1718,#426);
#282=LINE('',#1719,#427);
#283=LINE('',#1722,#428);
#284=LINE('',#1724,#429);
#285=LINE('',#1725,#430);
#286=LINE('',#1728,#431);
#287=LINE('',#1729,#432);
#288=LINE('',#1731,#433);
#289=LINE('',#1734,#434);
#290=LINE('',#1735,#435);
#291=LINE('',#1737,#436);
#292=LINE('',#1740,#437);
#293=LINE('',#1742,#438);
#294=LINE('',#1743,#439);
#295=LINE('',#1746,#440);
#296=LINE('',#1747,#441);
#297=LINE('',#1750,#442);
#298=LINE('',#1751,#443);
#299=LINE('',#1753,#444);
#300=LINE('',#1755,#445);
#301=LINE('',#1758,#446);
#302=LINE('',#1759,#447);
#303=LINE('',#1762,#448);
#304=LINE('',#1763,#449);
#305=LINE('',#1767,#450);
#306=LINE('',#1769,#451);
#307=LINE('',#1771,#452);
#308=LINE('',#1772,#453);
#309=LINE('',#1775,#454);
#310=LINE('',#1776,#455);
#311=LINE('',#1778,#456);
#312=LINE('',#1779,#457);
#313=LINE('',#1781,#458);
#314=LINE('',#1782,#459);
#315=LINE('',#1785,#460);
#316=LINE('',#1786,#461);
#317=LINE('',#1789,#462);
#318=LINE('',#1790,#463);
#319=LINE('',#1794,#464);
#320=LINE('',#1795,#465);
#321=LINE('',#1798,#466);
#322=LINE('',#1800,#467);
#323=LINE('',#1801,#468);
#324=LINE('',#1803,#469);
#325=LINE('',#1804,#470);
#326=VECTOR('',#1207,1.);
#327=VECTOR('',#1212,10.);
#328=VECTOR('',#1213,10.);
#329=VECTOR('',#1214,10.);
#330=VECTOR('',#1215,10.);
#331=VECTOR('',#1218,10.);
#332=VECTOR('',#1219,10.);
#333=VECTOR('',#1220,10.);
#334=VECTOR('',#1221,10.);
#335=VECTOR('',#1224,10.);
#336=VECTOR('',#1225,10.);
#337=VECTOR('',#1228,10.);
#338=VECTOR('',#1229,10.);
#339=VECTOR('',#1230,10.);
#340=VECTOR('',#1231,10.);
#341=VECTOR('',#1232,10.);
#342=VECTOR('',#1233,10.);
#343=VECTOR('',#1234,10.);
#344=VECTOR('',#1235,10.);
#345=VECTOR('',#1236,10.);
#346=VECTOR('',#1239,10.);
#347=VECTOR('',#1240,10.);
#348=VECTOR('',#1241,10.);
#349=VECTOR('',#1242,10.);
#350=VECTOR('',#1247,10.);
#351=VECTOR('',#1250,10.);
#352=VECTOR('',#1253,10.);
#353=VECTOR('',#1254,10.);
#354=VECTOR('',#1255,10.);
#355=VECTOR('',#1256,10.);
#356=VECTOR('',#1257,10.);
#357=VECTOR('',#1258,10.);
#358=VECTOR('',#1259,10.);
#359=VECTOR('',#1260,10.);
#360=VECTOR('',#1261,10.);
#361=VECTOR('',#1262,10.);
#362=VECTOR('',#1263,10.);
#363=VECTOR('',#1264,10.);
#364=VECTOR('',#1265,10.);
#365=VECTOR('',#1266,10.);
#366=VECTOR('',#1267,10.);
#367=VECTOR('',#1268,10.);
#368=VECTOR('',#1269,10.);
#369=VECTOR('',#1270,10.);
#370=VECTOR('',#1271,10.);
#371=VECTOR('',#1272,10.);
#372=VECTOR('',#1273,10.);
#373=VECTOR('',#1274,10.);
#374=VECTOR('',#1281,10.);
#375=VECTOR('',#1286,10.);
#376=VECTOR('',#1289,10.);
#377=VECTOR('',#1292,10.);
#378=VECTOR('',#1293,10.);
#379=VECTOR('',#1294,10.);
#380=VECTOR('',#1299,10.);
#381=VECTOR('',#1302,10.);
#382=VECTOR('',#1305,10.);
#383=VECTOR('',#1306,10.);
#384=VECTOR('',#1311,10.);
#385=VECTOR('',#1314,10.);
#386=VECTOR('',#1317,10.);
#387=VECTOR('',#1318,10.);
#388=VECTOR('',#1323,10.);
#389=VECTOR('',#1328,10.);
#390=VECTOR('',#1329,10.);
#391=VECTOR('',#1332,10.);
#392=VECTOR('',#1333,10.);
#393=VECTOR('',#1334,10.);
#394=VECTOR('',#1335,10.);
#395=VECTOR('',#1338,10.);
#396=VECTOR('',#1339,10.);
#397=VECTOR('',#1340,10.);
#398=VECTOR('',#1343,10.);
#399=VECTOR('',#1344,10.);
#400=VECTOR('',#1345,10.);
#401=VECTOR('',#1346,10.);
#402=VECTOR('',#1349,10.);
#403=VECTOR('',#1350,10.);
#404=VECTOR('',#1351,10.);
#405=VECTOR('',#1352,10.);
#406=VECTOR('',#1355,10.);
#407=VECTOR('',#1356,10.);
#408=VECTOR('',#1357,10.);
#409=VECTOR('',#1360,10.);
#410=VECTOR('',#1361,10.);
#411=VECTOR('',#1362,10.);
#412=VECTOR('',#1363,10.);
#413=VECTOR('',#1366,10.);
#414=VECTOR('',#1367,10.);
#415=VECTOR('',#1368,10.);
#416=VECTOR('',#1371,10.);
#417=VECTOR('',#1374,10.);
#418=VECTOR('',#1377,10.);
#419=VECTOR('',#1378,10.);
#420=VECTOR('',#1379,10.);
#421=VECTOR('',#1382,10.);
#422=VECTOR('',#1385,10.);
#423=VECTOR('',#1388,10.);
#424=VECTOR('',#1389,10.);
#425=VECTOR('',#1390,10.);
#426=VECTOR('',#1393,10.);
#427=VECTOR('',#1394,10.);
#428=VECTOR('',#1397,10.);
#429=VECTOR('',#1398,10.);
#430=VECTOR('',#1399,10.);
#431=VECTOR('',#1402,10.);
#432=VECTOR('',#1403,10.);
#433=VECTOR('',#1406,10.);
#434=VECTOR('',#1409,10.);
#435=VECTOR('',#1410,10.);
#436=VECTOR('',#1413,10.);
#437=VECTOR('',#1416,10.);
#438=VECTOR('',#1417,10.);
#439=VECTOR('',#1418,10.);
#440=VECTOR('',#1421,10.);
#441=VECTOR('',#1422,10.);
#442=VECTOR('',#1425,10.);
#443=VECTOR('',#1426,10.);
#444=VECTOR('',#1429,10.);
#445=VECTOR('',#1432,10.);
#446=VECTOR('',#1435,10.);
#447=VECTOR('',#1436,10.);
#448=VECTOR('',#1439,10.);
#449=VECTOR('',#1440,10.);
#450=VECTOR('',#1443,10.);
#451=VECTOR('',#1444,10.);
#452=VECTOR('',#1445,10.);
#453=VECTOR('',#1446,10.);
#454=VECTOR('',#1449,10.);
#455=VECTOR('',#1450,10.);
#456=VECTOR('',#1453,10.);
#457=VECTOR('',#1454,10.);
#458=VECTOR('',#1457,10.);
#459=VECTOR('',#1458,10.);
#460=VECTOR('',#1461,10.);
#461=VECTOR('',#1462,10.);
#462=VECTOR('',#1465,10.);
#463=VECTOR('',#1466,10.);
#464=VECTOR('',#1471,10.);
#465=VECTOR('',#1472,10.);
#466=VECTOR('',#1475,10.);
#467=VECTOR('',#1476,10.);
#468=VECTOR('',#1477,10.);
#469=VECTOR('',#1480,10.);
#470=VECTOR('',#1481,10.);
#471=CIRCLE('',#1133,1.);
#472=CIRCLE('',#1134,1.);
#473=CIRCLE('',#1141,4.);
#474=CIRCLE('',#1142,4.);
#475=CIRCLE('',#1145,4.);
#476=CIRCLE('',#1146,4.);
#477=CIRCLE('',#1148,1.5);
#478=CIRCLE('',#1149,1.5);
#479=CIRCLE('',#1152,1.5);
#480=CIRCLE('',#1153,1.5);
#481=CIRCLE('',#1156,1.5);
#482=CIRCLE('',#1157,1.5);
#483=CIRCLE('',#1160,1.5);
#484=CIRCLE('',#1161,1.5);
#485=VERTEX_POINT('',#1488);
#486=VERTEX_POINT('',#1490);
#487=VERTEX_POINT('',#1494);
#488=VERTEX_POINT('',#1495);
#489=VERTEX_POINT('',#1497);
#490=VERTEX_POINT('',#1499);
#491=VERTEX_POINT('',#1503);
#492=VERTEX_POINT('',#1504);
#493=VERTEX_POINT('',#1506);
#494=VERTEX_POINT('',#1508);
#495=VERTEX_POINT('',#1515);
#496=VERTEX_POINT('',#1517);
#497=VERTEX_POINT('',#1519);
#498=VERTEX_POINT('',#1521);
#499=VERTEX_POINT('',#1523);
#500=VERTEX_POINT('',#1525);
#501=VERTEX_POINT('',#1527);
#502=VERTEX_POINT('',#1529);
#503=VERTEX_POINT('',#1533);
#504=VERTEX_POINT('',#1535);
#505=VERTEX_POINT('',#1537);
#506=VERTEX_POINT('',#1541);
#507=VERTEX_POINT('',#1542);
#508=VERTEX_POINT('',#1544);
#509=VERTEX_POINT('',#1546);
#510=VERTEX_POINT('',#1550);
#511=VERTEX_POINT('',#1552);
#512=VERTEX_POINT('',#1554);
#513=VERTEX_POINT('',#1556);
#514=VERTEX_POINT('',#1558);
#515=VERTEX_POINT('',#1561);
#516=VERTEX_POINT('',#1563);
#517=VERTEX_POINT('',#1565);
#518=VERTEX_POINT('',#1567);
#519=VERTEX_POINT('',#1569);
#520=VERTEX_POINT('',#1571);
#521=VERTEX_POINT('',#1573);
#522=VERTEX_POINT('',#1575);
#523=VERTEX_POINT('',#1577);
#524=VERTEX_POINT('',#1579);
#525=VERTEX_POINT('',#1581);
#526=VERTEX_POINT('',#1583);
#527=VERTEX_POINT('',#1585);
#528=VERTEX_POINT('',#1587);
#529=VERTEX_POINT('',#1589);
#530=VERTEX_POINT('',#1593);
#531=VERTEX_POINT('',#1595);
#532=VERTEX_POINT('',#1599);
#533=VERTEX_POINT('',#1600);
#534=VERTEX_POINT('',#1602);
#535=VERTEX_POINT('',#1604);
#536=VERTEX_POINT('',#1608);
#537=VERTEX_POINT('',#1610);
#538=VERTEX_POINT('',#1614);
#539=VERTEX_POINT('',#1615);
#540=VERTEX_POINT('',#1617);
#541=VERTEX_POINT('',#1619);
#542=VERTEX_POINT('',#1626);
#543=VERTEX_POINT('',#1627);
#544=VERTEX_POINT('',#1629);
#545=VERTEX_POINT('',#1631);
#546=VERTEX_POINT('',#1638);
#547=VERTEX_POINT('',#1640);
#548=VERTEX_POINT('',#1647);
#549=VERTEX_POINT('',#1648);
#550=VERTEX_POINT('',#1650);
#551=VERTEX_POINT('',#1652);
#552=VERTEX_POINT('',#1656);
#553=VERTEX_POINT('',#1658);
#554=VERTEX_POINT('',#1662);
#555=VERTEX_POINT('',#1664);
#556=VERTEX_POINT('',#1669);
#557=VERTEX_POINT('',#1670);
#558=VERTEX_POINT('',#1672);
#559=VERTEX_POINT('',#1674);
#560=VERTEX_POINT('',#1678);
#561=VERTEX_POINT('',#1680);
#562=VERTEX_POINT('',#1684);
#563=VERTEX_POINT('',#1686);
#564=VERTEX_POINT('',#1691);
#565=VERTEX_POINT('',#1693);
#566=VERTEX_POINT('',#1701);
#567=VERTEX_POINT('',#1703);
#568=VERTEX_POINT('',#1711);
#569=VERTEX_POINT('',#1713);
#570=VERTEX_POINT('',#1717);
#571=VERTEX_POINT('',#1721);
#572=VERTEX_POINT('',#1723);
#573=VERTEX_POINT('',#1727);
#574=VERTEX_POINT('',#1733);
#575=VERTEX_POINT('',#1739);
#576=VERTEX_POINT('',#1741);
#577=VERTEX_POINT('',#1745);
#578=VERTEX_POINT('',#1749);
#579=VERTEX_POINT('',#1757);
#580=VERTEX_POINT('',#1761);
#581=VERTEX_POINT('',#1765);
#582=VERTEX_POINT('',#1766);
#583=VERTEX_POINT('',#1768);
#584=VERTEX_POINT('',#1770);
#585=VERTEX_POINT('',#1774);
#586=VERTEX_POINT('',#1784);
#587=VERTEX_POINT('',#1788);
#588=VERTEX_POINT('',#1793);
#589=VERTEX_POINT('',#1797);
#590=VERTEX_POINT('',#1799);
#591=EDGE_CURVE('',#485,#485,#471,.T.);
#592=EDGE_CURVE('',#485,#486,#181,.T.);
#593=EDGE_CURVE('',#486,#486,#472,.T.);
#594=EDGE_CURVE('',#487,#488,#182,.T.);
#595=EDGE_CURVE('',#489,#487,#183,.T.);
#596=EDGE_CURVE('',#490,#489,#184,.T.);
#597=EDGE_CURVE('',#488,#490,#185,.T.);
#598=EDGE_CURVE('',#491,#492,#186,.T.);
#599=EDGE_CURVE('',#491,#493,#187,.T.);
#600=EDGE_CURVE('',#494,#493,#188,.T.);
#601=EDGE_CURVE('',#492,#494,#189,.T.);
#602=EDGE_CURVE('',#488,#491,#190,.T.);
#603=EDGE_CURVE('',#493,#490,#191,.T.);
#604=EDGE_CURVE('',#495,#489,#192,.T.);
#605=EDGE_CURVE('',#496,#495,#193,.T.);
#606=EDGE_CURVE('',#496,#497,#194,.T.);
#607=EDGE_CURVE('',#497,#498,#195,.T.);
#608=EDGE_CURVE('',#498,#499,#196,.T.);
#609=EDGE_CURVE('',#499,#500,#197,.T.);
#610=EDGE_CURVE('',#500,#501,#198,.T.);
#611=EDGE_CURVE('',#501,#502,#199,.T.);
#612=EDGE_CURVE('',#494,#502,#200,.T.);
#613=EDGE_CURVE('',#487,#503,#201,.T.);
#614=EDGE_CURVE('',#503,#504,#202,.T.);
#615=EDGE_CURVE('',#504,#505,#203,.T.);
#616=EDGE_CURVE('',#505,#495,#204,.T.);
#617=EDGE_CURVE('',#506,#507,#473,.T.);
#618=EDGE_CURVE('',#507,#508,#205,.T.);
#619=EDGE_CURVE('',#508,#509,#474,.T.);
#620=EDGE_CURVE('',#509,#506,#206,.T.);
#621=EDGE_CURVE('',#508,#510,#207,.T.);
#622=EDGE_CURVE('',#511,#507,#208,.T.);
#623=EDGE_CURVE('',#511,#512,#209,.T.);
#624=EDGE_CURVE('',#513,#512,#210,.T.);
#625=EDGE_CURVE('',#514,#513,#211,.T.);
#626=EDGE_CURVE('',#514,#499,#212,.T.);
#627=EDGE_CURVE('',#498,#515,#213,.T.);
#628=EDGE_CURVE('',#516,#515,#214,.T.);
#629=EDGE_CURVE('',#517,#516,#215,.T.);
#630=EDGE_CURVE('',#517,#518,#216,.T.);
#631=EDGE_CURVE('',#519,#518,#217,.T.);
#632=EDGE_CURVE('',#520,#519,#218,.T.);
#633=EDGE_CURVE('',#521,#520,#219,.T.);
#634=EDGE_CURVE('',#521,#522,#220,.T.);
#635=EDGE_CURVE('',#523,#522,#221,.T.);
#636=EDGE_CURVE('',#524,#523,#222,.T.);
#637=EDGE_CURVE('',#524,#525,#223,.T.);
#638=EDGE_CURVE('',#526,#525,#224,.T.);
#639=EDGE_CURVE('',#526,#527,#225,.T.);
#640=EDGE_CURVE('',#528,#527,#226,.T.);
#641=EDGE_CURVE('',#529,#528,#227,.T.);
#642=EDGE_CURVE('',#529,#510,#228,.T.);
#643=EDGE_CURVE('',#530,#520,#475,.T.);
#644=EDGE_CURVE('',#519,#531,#476,.T.);
#645=EDGE_CURVE('',#531,#530,#229,.T.);
#646=EDGE_CURVE('',#532,#533,#477,.T.);
#647=EDGE_CURVE('',#533,#534,#230,.T.);
#648=EDGE_CURVE('',#534,#535,#478,.T.);
#649=EDGE_CURVE('',#535,#532,#231,.T.);
#650=EDGE_CURVE('',#536,#533,#232,.T.);
#651=EDGE_CURVE('',#537,#536,#233,.T.);
#652=EDGE_CURVE('',#534,#537,#234,.T.);
#653=EDGE_CURVE('',#538,#539,#479,.T.);
#654=EDGE_CURVE('',#539,#540,#235,.T.);
#655=EDGE_CURVE('',#540,#541,#480,.T.);
#656=EDGE_CURVE('',#541,#538,#236,.T.);
#657=EDGE_CURVE('',#540,#535,#237,.T.);
#658=EDGE_CURVE('',#532,#539,#238,.T.);
#659=EDGE_CURVE('',#542,#543,#481,.T.);
#660=EDGE_CURVE('',#543,#544,#239,.T.);
#661=EDGE_CURVE('',#544,#545,#482,.T.);
#662=EDGE_CURVE('',#545,#542,#240,.T.);
#663=EDGE_CURVE('',#544,#541,#241,.T.);
#664=EDGE_CURVE('',#538,#543,#242,.T.);
#665=EDGE_CURVE('',#536,#546,#483,.T.);
#666=EDGE_CURVE('',#546,#547,#243,.T.);
#667=EDGE_CURVE('',#547,#537,#484,.T.);
#668=EDGE_CURVE('',#547,#545,#244,.T.);
#669=EDGE_CURVE('',#542,#546,#245,.T.);
#670=EDGE_CURVE('',#548,#549,#246,.T.);
#671=EDGE_CURVE('',#550,#548,#247,.T.);
#672=EDGE_CURVE('',#551,#550,#248,.T.);
#673=EDGE_CURVE('',#549,#551,#249,.T.);
#674=EDGE_CURVE('',#552,#548,#250,.T.);
#675=EDGE_CURVE('',#552,#553,#251,.T.);
#676=EDGE_CURVE('',#553,#550,#252,.T.);
#677=EDGE_CURVE('',#554,#549,#253,.T.);
#678=EDGE_CURVE('',#555,#554,#254,.T.);
#679=EDGE_CURVE('',#531,#555,#255,.T.);
#680=EDGE_CURVE('',#518,#552,#256,.T.);
#681=EDGE_CURVE('',#556,#557,#257,.T.);
#682=EDGE_CURVE('',#558,#556,#258,.T.);
#683=EDGE_CURVE('',#559,#558,#259,.T.);
#684=EDGE_CURVE('',#557,#559,#260,.T.);
#685=EDGE_CURVE('',#560,#559,#261,.T.);
#686=EDGE_CURVE('',#560,#561,#262,.T.);
#687=EDGE_CURVE('',#561,#557,#263,.T.);
#688=EDGE_CURVE('',#562,#558,#264,.T.);
#689=EDGE_CURVE('',#563,#562,#265,.T.);
#690=EDGE_CURVE('',#509,#563,#266,.T.);
#691=EDGE_CURVE('',#510,#560,#267,.T.);
#692=EDGE_CURVE('',#563,#564,#268,.T.);
#693=EDGE_CURVE('',#565,#562,#269,.T.);
#694=EDGE_CURVE('',#564,#565,#270,.T.);
#695=EDGE_CURVE('',#556,#565,#271,.T.);
#696=EDGE_CURVE('',#506,#564,#272,.T.);
#697=EDGE_CURVE('',#555,#566,#273,.T.);
#698=EDGE_CURVE('',#567,#554,#274,.T.);
#699=EDGE_CURVE('',#566,#567,#275,.T.);
#700=EDGE_CURVE('',#551,#567,#276,.T.);
#701=EDGE_CURVE('',#530,#566,#277,.T.);
#702=EDGE_CURVE('',#568,#526,#278,.T.);
#703=EDGE_CURVE('',#569,#568,#279,.T.);
#704=EDGE_CURVE('',#527,#569,#280,.T.);
#705=EDGE_CURVE('',#569,#570,#281,.T.);
#706=EDGE_CURVE('',#570,#568,#282,.T.);
#707=EDGE_CURVE('',#570,#571,#283,.T.);
#708=EDGE_CURVE('',#572,#571,#284,.T.);
#709=EDGE_CURVE('',#528,#572,#285,.T.);
#710=EDGE_CURVE('',#573,#497,#286,.T.);
#711=EDGE_CURVE('',#515,#573,#287,.T.);
#712=EDGE_CURVE('',#573,#496,#288,.T.);
#713=EDGE_CURVE('',#574,#514,#289,.T.);
#714=EDGE_CURVE('',#500,#574,#290,.T.);
#715=EDGE_CURVE('',#501,#574,#291,.T.);
#716=EDGE_CURVE('',#575,#524,#292,.T.);
#717=EDGE_CURVE('',#576,#575,#293,.T.);
#718=EDGE_CURVE('',#525,#576,#294,.T.);
#719=EDGE_CURVE('',#576,#577,#295,.T.);
#720=EDGE_CURVE('',#577,#575,#296,.T.);
#721=EDGE_CURVE('',#577,#578,#297,.T.);
#722=EDGE_CURVE('',#571,#578,#298,.T.);
#723=EDGE_CURVE('',#521,#553,#299,.T.);
#724=EDGE_CURVE('',#511,#561,#300,.T.);
#725=EDGE_CURVE('',#579,#572,#301,.T.);
#726=EDGE_CURVE('',#529,#579,#302,.T.);
#727=EDGE_CURVE('',#523,#580,#303,.T.);
#728=EDGE_CURVE('',#578,#580,#304,.T.);
#729=EDGE_CURVE('',#581,#582,#305,.T.);
#730=EDGE_CURVE('',#581,#583,#306,.T.);
#731=EDGE_CURVE('',#584,#583,#307,.T.);
#732=EDGE_CURVE('',#582,#584,#308,.T.);
#733=EDGE_CURVE('',#522,#585,#309,.T.);
#734=EDGE_CURVE('',#580,#585,#310,.T.);
#735=EDGE_CURVE('',#585,#584,#311,.T.);
#736=EDGE_CURVE('',#583,#579,#312,.T.);
#737=EDGE_CURVE('',#516,#505,#313,.T.);
#738=EDGE_CURVE('',#517,#504,#314,.T.);
#739=EDGE_CURVE('',#513,#586,#315,.T.);
#740=EDGE_CURVE('',#502,#586,#316,.T.);
#741=EDGE_CURVE('',#512,#587,#317,.T.);
#742=EDGE_CURVE('',#586,#587,#318,.T.);
#743=EDGE_CURVE('',#582,#588,#319,.T.);
#744=EDGE_CURVE('',#588,#503,#320,.T.);
#745=EDGE_CURVE('',#589,#492,#321,.T.);
#746=EDGE_CURVE('',#590,#589,#322,.T.);
#747=EDGE_CURVE('',#588,#590,#323,.T.);
#748=EDGE_CURVE('',#590,#581,#324,.T.);
#749=EDGE_CURVE('',#587,#589,#325,.T.);
#750=ORIENTED_EDGE('',*,*,#591,.F.);
#751=ORIENTED_EDGE('',*,*,#592,.T.);
#752=ORIENTED_EDGE('',*,*,#593,.F.);
#753=ORIENTED_EDGE('',*,*,#592,.F.);
#754=ORIENTED_EDGE('',*,*,#594,.F.);
#755=ORIENTED_EDGE('',*,*,#595,.F.);
#756=ORIENTED_EDGE('',*,*,#596,.F.);
#757=ORIENTED_EDGE('',*,*,#597,.F.);
#758=ORIENTED_EDGE('',*,*,#598,.F.);
#759=ORIENTED_EDGE('',*,*,#599,.T.);
#760=ORIENTED_EDGE('',*,*,#600,.F.);
#761=ORIENTED_EDGE('',*,*,#601,.F.);
#762=ORIENTED_EDGE('',*,*,#602,.F.);
#763=ORIENTED_EDGE('',*,*,#597,.T.);
#764=ORIENTED_EDGE('',*,*,#603,.F.);
#765=ORIENTED_EDGE('',*,*,#599,.F.);
#766=ORIENTED_EDGE('',*,*,#600,.T.);
#767=ORIENTED_EDGE('',*,*,#603,.T.);
#768=ORIENTED_EDGE('',*,*,#596,.T.);
#769=ORIENTED_EDGE('',*,*,#604,.F.);
#770=ORIENTED_EDGE('',*,*,#605,.F.);
#771=ORIENTED_EDGE('',*,*,#606,.T.);
#772=ORIENTED_EDGE('',*,*,#607,.T.);
#773=ORIENTED_EDGE('',*,*,#608,.T.);
#774=ORIENTED_EDGE('',*,*,#609,.T.);
#775=ORIENTED_EDGE('',*,*,#610,.T.);
#776=ORIENTED_EDGE('',*,*,#611,.T.);
#777=ORIENTED_EDGE('',*,*,#612,.F.);
#778=ORIENTED_EDGE('',*,*,#593,.T.);
#779=ORIENTED_EDGE('',*,*,#595,.T.);
#780=ORIENTED_EDGE('',*,*,#613,.T.);
#781=ORIENTED_EDGE('',*,*,#614,.T.);
#782=ORIENTED_EDGE('',*,*,#615,.T.);
#783=ORIENTED_EDGE('',*,*,#616,.T.);
#784=ORIENTED_EDGE('',*,*,#604,.T.);
#785=ORIENTED_EDGE('',*,*,#617,.T.);
#786=ORIENTED_EDGE('',*,*,#618,.T.);
#787=ORIENTED_EDGE('',*,*,#619,.T.);
#788=ORIENTED_EDGE('',*,*,#620,.T.);
#789=ORIENTED_EDGE('',*,*,#621,.F.);
#790=ORIENTED_EDGE('',*,*,#618,.F.);
#791=ORIENTED_EDGE('',*,*,#622,.F.);
#792=ORIENTED_EDGE('',*,*,#623,.T.);
#793=ORIENTED_EDGE('',*,*,#624,.F.);
#794=ORIENTED_EDGE('',*,*,#625,.F.);
#795=ORIENTED_EDGE('',*,*,#626,.T.);
#796=ORIENTED_EDGE('',*,*,#608,.F.);
#797=ORIENTED_EDGE('',*,*,#627,.T.);
#798=ORIENTED_EDGE('',*,*,#628,.F.);
#799=ORIENTED_EDGE('',*,*,#629,.F.);
#800=ORIENTED_EDGE('',*,*,#630,.T.);
#801=ORIENTED_EDGE('',*,*,#631,.F.);
#802=ORIENTED_EDGE('',*,*,#632,.F.);
#803=ORIENTED_EDGE('',*,*,#633,.F.);
#804=ORIENTED_EDGE('',*,*,#634,.T.);
#805=ORIENTED_EDGE('',*,*,#635,.F.);
#806=ORIENTED_EDGE('',*,*,#636,.F.);
#807=ORIENTED_EDGE('',*,*,#637,.T.);
#808=ORIENTED_EDGE('',*,*,#638,.F.);
#809=ORIENTED_EDGE('',*,*,#639,.T.);
#810=ORIENTED_EDGE('',*,*,#640,.F.);
#811=ORIENTED_EDGE('',*,*,#641,.F.);
#812=ORIENTED_EDGE('',*,*,#642,.T.);
#813=ORIENTED_EDGE('',*,*,#643,.T.);
#814=ORIENTED_EDGE('',*,*,#632,.T.);
#815=ORIENTED_EDGE('',*,*,#644,.T.);
#816=ORIENTED_EDGE('',*,*,#645,.T.);
#817=ORIENTED_EDGE('',*,*,#646,.T.);
#818=ORIENTED_EDGE('',*,*,#647,.T.);
#819=ORIENTED_EDGE('',*,*,#648,.T.);
#820=ORIENTED_EDGE('',*,*,#649,.T.);
#821=ORIENTED_EDGE('',*,*,#647,.F.);
#822=ORIENTED_EDGE('',*,*,#650,.F.);
#823=ORIENTED_EDGE('',*,*,#651,.F.);
#824=ORIENTED_EDGE('',*,*,#652,.F.);
#825=ORIENTED_EDGE('',*,*,#653,.T.);
#826=ORIENTED_EDGE('',*,*,#654,.T.);
#827=ORIENTED_EDGE('',*,*,#655,.T.);
#828=ORIENTED_EDGE('',*,*,#656,.T.);
#829=ORIENTED_EDGE('',*,*,#649,.F.);
#830=ORIENTED_EDGE('',*,*,#657,.F.);
#831=ORIENTED_EDGE('',*,*,#654,.F.);
#832=ORIENTED_EDGE('',*,*,#658,.F.);
#833=ORIENTED_EDGE('',*,*,#659,.T.);
#834=ORIENTED_EDGE('',*,*,#660,.T.);
#835=ORIENTED_EDGE('',*,*,#661,.T.);
#836=ORIENTED_EDGE('',*,*,#662,.T.);
#837=ORIENTED_EDGE('',*,*,#656,.F.);
#838=ORIENTED_EDGE('',*,*,#663,.F.);
#839=ORIENTED_EDGE('',*,*,#660,.F.);
#840=ORIENTED_EDGE('',*,*,#664,.F.);
#841=ORIENTED_EDGE('',*,*,#665,.T.);
#842=ORIENTED_EDGE('',*,*,#666,.T.);
#843=ORIENTED_EDGE('',*,*,#667,.T.);
#844=ORIENTED_EDGE('',*,*,#651,.T.);
#845=ORIENTED_EDGE('',*,*,#662,.F.);
#846=ORIENTED_EDGE('',*,*,#668,.F.);
#847=ORIENTED_EDGE('',*,*,#666,.F.);
#848=ORIENTED_EDGE('',*,*,#669,.F.);
#849=ORIENTED_EDGE('',*,*,#670,.F.);
#850=ORIENTED_EDGE('',*,*,#671,.F.);
#851=ORIENTED_EDGE('',*,*,#672,.F.);
#852=ORIENTED_EDGE('',*,*,#673,.F.);
#853=ORIENTED_EDGE('',*,*,#671,.T.);
#854=ORIENTED_EDGE('',*,*,#674,.F.);
#855=ORIENTED_EDGE('',*,*,#675,.T.);
#856=ORIENTED_EDGE('',*,*,#676,.T.);
#857=ORIENTED_EDGE('',*,*,#670,.T.);
#858=ORIENTED_EDGE('',*,*,#677,.F.);
#859=ORIENTED_EDGE('',*,*,#678,.F.);
#860=ORIENTED_EDGE('',*,*,#679,.F.);
#861=ORIENTED_EDGE('',*,*,#644,.F.);
#862=ORIENTED_EDGE('',*,*,#631,.T.);
#863=ORIENTED_EDGE('',*,*,#680,.T.);
#864=ORIENTED_EDGE('',*,*,#674,.T.);
#865=ORIENTED_EDGE('',*,*,#681,.F.);
#866=ORIENTED_EDGE('',*,*,#682,.F.);
#867=ORIENTED_EDGE('',*,*,#683,.F.);
#868=ORIENTED_EDGE('',*,*,#684,.F.);
#869=ORIENTED_EDGE('',*,*,#684,.T.);
#870=ORIENTED_EDGE('',*,*,#685,.F.);
#871=ORIENTED_EDGE('',*,*,#686,.T.);
#872=ORIENTED_EDGE('',*,*,#687,.T.);
#873=ORIENTED_EDGE('',*,*,#683,.T.);
#874=ORIENTED_EDGE('',*,*,#688,.F.);
#875=ORIENTED_EDGE('',*,*,#689,.F.);
#876=ORIENTED_EDGE('',*,*,#690,.F.);
#877=ORIENTED_EDGE('',*,*,#619,.F.);
#878=ORIENTED_EDGE('',*,*,#621,.T.);
#879=ORIENTED_EDGE('',*,*,#691,.T.);
#880=ORIENTED_EDGE('',*,*,#685,.T.);
#881=ORIENTED_EDGE('',*,*,#692,.F.);
#882=ORIENTED_EDGE('',*,*,#689,.T.);
#883=ORIENTED_EDGE('',*,*,#693,.F.);
#884=ORIENTED_EDGE('',*,*,#694,.F.);
#885=ORIENTED_EDGE('',*,*,#682,.T.);
#886=ORIENTED_EDGE('',*,*,#695,.T.);
#887=ORIENTED_EDGE('',*,*,#693,.T.);
#888=ORIENTED_EDGE('',*,*,#688,.T.);
#889=ORIENTED_EDGE('',*,*,#620,.F.);
#890=ORIENTED_EDGE('',*,*,#690,.T.);
#891=ORIENTED_EDGE('',*,*,#692,.T.);
#892=ORIENTED_EDGE('',*,*,#696,.F.);
#893=ORIENTED_EDGE('',*,*,#697,.F.);
#894=ORIENTED_EDGE('',*,*,#678,.T.);
#895=ORIENTED_EDGE('',*,*,#698,.F.);
#896=ORIENTED_EDGE('',*,*,#699,.F.);
#897=ORIENTED_EDGE('',*,*,#673,.T.);
#898=ORIENTED_EDGE('',*,*,#700,.T.);
#899=ORIENTED_EDGE('',*,*,#698,.T.);
#900=ORIENTED_EDGE('',*,*,#677,.T.);
#901=ORIENTED_EDGE('',*,*,#645,.F.);
#902=ORIENTED_EDGE('',*,*,#679,.T.);
#903=ORIENTED_EDGE('',*,*,#697,.T.);
#904=ORIENTED_EDGE('',*,*,#701,.F.);
#905=ORIENTED_EDGE('',*,*,#639,.F.);
#906=ORIENTED_EDGE('',*,*,#702,.F.);
#907=ORIENTED_EDGE('',*,*,#703,.F.);
#908=ORIENTED_EDGE('',*,*,#704,.F.);
#909=ORIENTED_EDGE('',*,*,#705,.F.);
#910=ORIENTED_EDGE('',*,*,#703,.T.);
#911=ORIENTED_EDGE('',*,*,#706,.F.);
#912=ORIENTED_EDGE('',*,*,#704,.T.);
#913=ORIENTED_EDGE('',*,*,#705,.T.);
#914=ORIENTED_EDGE('',*,*,#707,.T.);
#915=ORIENTED_EDGE('',*,*,#708,.F.);
#916=ORIENTED_EDGE('',*,*,#709,.F.);
#917=ORIENTED_EDGE('',*,*,#640,.T.);
#918=ORIENTED_EDGE('',*,*,#668,.T.);
#919=ORIENTED_EDGE('',*,*,#661,.F.);
#920=ORIENTED_EDGE('',*,*,#663,.T.);
#921=ORIENTED_EDGE('',*,*,#655,.F.);
#922=ORIENTED_EDGE('',*,*,#657,.T.);
#923=ORIENTED_EDGE('',*,*,#648,.F.);
#924=ORIENTED_EDGE('',*,*,#652,.T.);
#925=ORIENTED_EDGE('',*,*,#667,.F.);
#926=ORIENTED_EDGE('',*,*,#627,.F.);
#927=ORIENTED_EDGE('',*,*,#607,.F.);
#928=ORIENTED_EDGE('',*,*,#710,.F.);
#929=ORIENTED_EDGE('',*,*,#711,.F.);
#930=ORIENTED_EDGE('',*,*,#710,.T.);
#931=ORIENTED_EDGE('',*,*,#606,.F.);
#932=ORIENTED_EDGE('',*,*,#712,.F.);
#933=ORIENTED_EDGE('',*,*,#626,.F.);
#934=ORIENTED_EDGE('',*,*,#713,.F.);
#935=ORIENTED_EDGE('',*,*,#714,.F.);
#936=ORIENTED_EDGE('',*,*,#609,.F.);
#937=ORIENTED_EDGE('',*,*,#610,.F.);
#938=ORIENTED_EDGE('',*,*,#714,.T.);
#939=ORIENTED_EDGE('',*,*,#715,.F.);
#940=ORIENTED_EDGE('',*,*,#637,.F.);
#941=ORIENTED_EDGE('',*,*,#716,.F.);
#942=ORIENTED_EDGE('',*,*,#717,.F.);
#943=ORIENTED_EDGE('',*,*,#718,.F.);
#944=ORIENTED_EDGE('',*,*,#719,.F.);
#945=ORIENTED_EDGE('',*,*,#717,.T.);
#946=ORIENTED_EDGE('',*,*,#720,.F.);
#947=ORIENTED_EDGE('',*,*,#702,.T.);
#948=ORIENTED_EDGE('',*,*,#638,.T.);
#949=ORIENTED_EDGE('',*,*,#718,.T.);
#950=ORIENTED_EDGE('',*,*,#719,.T.);
#951=ORIENTED_EDGE('',*,*,#721,.T.);
#952=ORIENTED_EDGE('',*,*,#722,.F.);
#953=ORIENTED_EDGE('',*,*,#707,.F.);
#954=ORIENTED_EDGE('',*,*,#706,.T.);
#955=ORIENTED_EDGE('',*,*,#672,.T.);
#956=ORIENTED_EDGE('',*,*,#676,.F.);
#957=ORIENTED_EDGE('',*,*,#723,.F.);
#958=ORIENTED_EDGE('',*,*,#633,.T.);
#959=ORIENTED_EDGE('',*,*,#643,.F.);
#960=ORIENTED_EDGE('',*,*,#701,.T.);
#961=ORIENTED_EDGE('',*,*,#699,.T.);
#962=ORIENTED_EDGE('',*,*,#700,.F.);
#963=ORIENTED_EDGE('',*,*,#681,.T.);
#964=ORIENTED_EDGE('',*,*,#687,.F.);
#965=ORIENTED_EDGE('',*,*,#724,.F.);
#966=ORIENTED_EDGE('',*,*,#622,.T.);
#967=ORIENTED_EDGE('',*,*,#617,.F.);
#968=ORIENTED_EDGE('',*,*,#696,.T.);
#969=ORIENTED_EDGE('',*,*,#694,.T.);
#970=ORIENTED_EDGE('',*,*,#695,.F.);
#971=ORIENTED_EDGE('',*,*,#641,.T.);
#972=ORIENTED_EDGE('',*,*,#709,.T.);
#973=ORIENTED_EDGE('',*,*,#725,.F.);
#974=ORIENTED_EDGE('',*,*,#726,.F.);
#975=ORIENTED_EDGE('',*,*,#716,.T.);
#976=ORIENTED_EDGE('',*,*,#636,.T.);
#977=ORIENTED_EDGE('',*,*,#727,.T.);
#978=ORIENTED_EDGE('',*,*,#728,.F.);
#979=ORIENTED_EDGE('',*,*,#721,.F.);
#980=ORIENTED_EDGE('',*,*,#720,.T.);
#981=ORIENTED_EDGE('',*,*,#729,.F.);
#982=ORIENTED_EDGE('',*,*,#730,.T.);
#983=ORIENTED_EDGE('',*,*,#731,.F.);
#984=ORIENTED_EDGE('',*,*,#732,.F.);
#985=ORIENTED_EDGE('',*,*,#635,.T.);
#986=ORIENTED_EDGE('',*,*,#733,.T.);
#987=ORIENTED_EDGE('',*,*,#734,.F.);
#988=ORIENTED_EDGE('',*,*,#727,.F.);
#989=ORIENTED_EDGE('',*,*,#708,.T.);
#990=ORIENTED_EDGE('',*,*,#722,.T.);
#991=ORIENTED_EDGE('',*,*,#728,.T.);
#992=ORIENTED_EDGE('',*,*,#734,.T.);
#993=ORIENTED_EDGE('',*,*,#735,.T.);
#994=ORIENTED_EDGE('',*,*,#731,.T.);
#995=ORIENTED_EDGE('',*,*,#736,.T.);
#996=ORIENTED_EDGE('',*,*,#725,.T.);
#997=ORIENTED_EDGE('',*,*,#629,.T.);
#998=ORIENTED_EDGE('',*,*,#737,.T.);
#999=ORIENTED_EDGE('',*,*,#615,.F.);
#1000=ORIENTED_EDGE('',*,*,#738,.F.);
#1001=ORIENTED_EDGE('',*,*,#713,.T.);
#1002=ORIENTED_EDGE('',*,*,#625,.T.);
#1003=ORIENTED_EDGE('',*,*,#739,.T.);
#1004=ORIENTED_EDGE('',*,*,#740,.F.);
#1005=ORIENTED_EDGE('',*,*,#611,.F.);
#1006=ORIENTED_EDGE('',*,*,#715,.T.);
#1007=ORIENTED_EDGE('',*,*,#624,.T.);
#1008=ORIENTED_EDGE('',*,*,#741,.T.);
#1009=ORIENTED_EDGE('',*,*,#742,.F.);
#1010=ORIENTED_EDGE('',*,*,#739,.F.);
#1011=ORIENTED_EDGE('',*,*,#712,.T.);
#1012=ORIENTED_EDGE('',*,*,#605,.T.);
#1013=ORIENTED_EDGE('',*,*,#616,.F.);
#1014=ORIENTED_EDGE('',*,*,#737,.F.);
#1015=ORIENTED_EDGE('',*,*,#628,.T.);
#1016=ORIENTED_EDGE('',*,*,#711,.T.);
#1017=ORIENTED_EDGE('',*,*,#743,.F.);
#1018=ORIENTED_EDGE('',*,*,#732,.T.);
#1019=ORIENTED_EDGE('',*,*,#735,.F.);
#1020=ORIENTED_EDGE('',*,*,#733,.F.);
#1021=ORIENTED_EDGE('',*,*,#634,.F.);
#1022=ORIENTED_EDGE('',*,*,#723,.T.);
#1023=ORIENTED_EDGE('',*,*,#675,.F.);
#1024=ORIENTED_EDGE('',*,*,#680,.F.);
#1025=ORIENTED_EDGE('',*,*,#630,.F.);
#1026=ORIENTED_EDGE('',*,*,#738,.T.);
#1027=ORIENTED_EDGE('',*,*,#614,.F.);
#1028=ORIENTED_EDGE('',*,*,#744,.F.);
#1029=ORIENTED_EDGE('',*,*,#598,.T.);
#1030=ORIENTED_EDGE('',*,*,#745,.F.);
#1031=ORIENTED_EDGE('',*,*,#746,.F.);
#1032=ORIENTED_EDGE('',*,*,#747,.F.);
#1033=ORIENTED_EDGE('',*,*,#744,.T.);
#1034=ORIENTED_EDGE('',*,*,#613,.F.);
#1035=ORIENTED_EDGE('',*,*,#594,.T.);
#1036=ORIENTED_EDGE('',*,*,#602,.T.);
#1037=ORIENTED_EDGE('',*,*,#591,.T.);
#1038=ORIENTED_EDGE('',*,*,#748,.F.);
#1039=ORIENTED_EDGE('',*,*,#746,.T.);
#1040=ORIENTED_EDGE('',*,*,#749,.F.);
#1041=ORIENTED_EDGE('',*,*,#741,.F.);
#1042=ORIENTED_EDGE('',*,*,#623,.F.);
#1043=ORIENTED_EDGE('',*,*,#724,.T.);
#1044=ORIENTED_EDGE('',*,*,#686,.F.);
#1045=ORIENTED_EDGE('',*,*,#691,.F.);
#1046=ORIENTED_EDGE('',*,*,#642,.F.);
#1047=ORIENTED_EDGE('',*,*,#726,.T.);
#1048=ORIENTED_EDGE('',*,*,#736,.F.);
#1049=ORIENTED_EDGE('',*,*,#730,.F.);
#1050=ORIENTED_EDGE('',*,*,#669,.T.);
#1051=ORIENTED_EDGE('',*,*,#665,.F.);
#1052=ORIENTED_EDGE('',*,*,#650,.T.);
#1053=ORIENTED_EDGE('',*,*,#646,.F.);
#1054=ORIENTED_EDGE('',*,*,#658,.T.);
#1055=ORIENTED_EDGE('',*,*,#653,.F.);
#1056=ORIENTED_EDGE('',*,*,#664,.T.);
#1057=ORIENTED_EDGE('',*,*,#659,.F.);
#1058=ORIENTED_EDGE('',*,*,#601,.T.);
#1059=ORIENTED_EDGE('',*,*,#612,.T.);
#1060=ORIENTED_EDGE('',*,*,#740,.T.);
#1061=ORIENTED_EDGE('',*,*,#742,.T.);
#1062=ORIENTED_EDGE('',*,*,#749,.T.);
#1063=ORIENTED_EDGE('',*,*,#745,.T.);
#1064=ORIENTED_EDGE('',*,*,#743,.T.);
#1065=ORIENTED_EDGE('',*,*,#747,.T.);
#1066=ORIENTED_EDGE('',*,*,#748,.T.);
#1067=ORIENTED_EDGE('',*,*,#729,.T.);
#1068=CYLINDRICAL_SURFACE('',#1132,1.);
#1069=CYLINDRICAL_SURFACE('',#1140,4.);
#1070=CYLINDRICAL_SURFACE('',#1144,4.);
#1071=CYLINDRICAL_SURFACE('',#1147,1.5);
#1072=CYLINDRICAL_SURFACE('',#1151,1.5);
#1073=CYLINDRICAL_SURFACE('',#1155,1.5);
#1074=CYLINDRICAL_SURFACE('',#1159,1.5);
#1075=ADVANCED_FACE('',(#67),#1068,.F.);
#1076=ADVANCED_FACE('',(#68),#19,.F.);
#1077=ADVANCED_FACE('',(#69),#20,.F.);
#1078=ADVANCED_FACE('',(#70),#21,.F.);
#1079=ADVANCED_FACE('',(#71,#15),#22,.T.);
#1080=ADVANCED_FACE('',(#72),#23,.T.);
#1081=ADVANCED_FACE('',(#73),#1069,.F.);
#1082=ADVANCED_FACE('',(#74),#24,.T.);
#1083=ADVANCED_FACE('',(#75),#1070,.F.);
#1084=ADVANCED_FACE('',(#76),#1071,.F.);
#1085=ADVANCED_FACE('',(#77),#25,.F.);
#1086=ADVANCED_FACE('',(#78),#1072,.F.);
#1087=ADVANCED_FACE('',(#79),#26,.F.);
#1088=ADVANCED_FACE('',(#80),#1073,.F.);
#1089=ADVANCED_FACE('',(#81),#27,.F.);
#1090=ADVANCED_FACE('',(#82),#1074,.F.);
#1091=ADVANCED_FACE('',(#83),#28,.F.);
#1092=ADVANCED_FACE('',(#84),#29,.F.);
#1093=ADVANCED_FACE('',(#85),#30,.T.);
#1094=ADVANCED_FACE('',(#86),#31,.T.);
#1095=ADVANCED_FACE('',(#87),#32,.F.);
#1096=ADVANCED_FACE('',(#88),#33,.T.);
#1097=ADVANCED_FACE('',(#89),#34,.T.);
#1098=ADVANCED_FACE('',(#90),#35,.T.);
#1099=ADVANCED_FACE('',(#91),#36,.T.);
#1100=ADVANCED_FACE('',(#92),#37,.T.);
#1101=ADVANCED_FACE('',(#93),#38,.T.);
#1102=ADVANCED_FACE('',(#94),#39,.T.);
#1103=ADVANCED_FACE('',(#95),#40,.T.);
#1104=ADVANCED_FACE('',(#96),#41,.T.);
#1105=ADVANCED_FACE('',(#97),#42,.T.);
#1106=ADVANCED_FACE('',(#98,#16),#43,.T.);
#1107=ADVANCED_FACE('',(#99),#44,.T.);
#1108=ADVANCED_FACE('',(#100),#45,.T.);
#1109=ADVANCED_FACE('',(#101),#46,.T.);
#1110=ADVANCED_FACE('',(#102),#47,.T.);
#1111=ADVANCED_FACE('',(#103),#48,.T.);
#1112=ADVANCED_FACE('',(#104),#49,.T.);
#1113=ADVANCED_FACE('',(#105),#50,.T.);
#1114=ADVANCED_FACE('',(#106),#51,.T.);
#1115=ADVANCED_FACE('',(#107),#52,.T.);
#1116=ADVANCED_FACE('',(#108),#53,.T.);
#1117=ADVANCED_FACE('',(#109),#54,.T.);
#1118=ADVANCED_FACE('',(#110),#55,.T.);
#1119=ADVANCED_FACE('',(#111),#56,.T.);
#1120=ADVANCED_FACE('',(#112),#57,.T.);
#1121=ADVANCED_FACE('',(#113),#58,.T.);
#1122=ADVANCED_FACE('',(#114),#59,.T.);
#1123=ADVANCED_FACE('',(#115),#60,.T.);
#1124=ADVANCED_FACE('',(#116),#61,.T.);
#1125=ADVANCED_FACE('',(#117),#62,.T.);
#1126=ADVANCED_FACE('',(#118,#17),#63,.T.);
#1127=ADVANCED_FACE('',(#119,#18),#64,.T.);
#1128=ADVANCED_FACE('',(#120),#65,.T.);
#1129=ADVANCED_FACE('',(#121),#66,.F.);
#1130=CLOSED_SHELL('',(#1075,#1076,#1077,#1078,#1079,#1080,#1081,#1082,
#1083,#1084,#1085,#1086,#1087,#1088,#1089,#1090,#1091,#1092,#1093,#1094,
#1095,#1096,#1097,#1098,#1099,#1100,#1101,#1102,#1103,#1104,#1105,#1106,
#1107,#1108,#1109,#1110,#1111,#1112,#1113,#1114,#1115,#1116,#1117,#1118,
#1119,#1120,#1121,#1122,#1123,#1124,#1125,#1126,#1127,#1128,#1129));
#1131=AXIS2_PLACEMENT_3D('',#1486,#1201,#1202);
#1132=AXIS2_PLACEMENT_3D('',#1487,#1203,#1204);
#1133=AXIS2_PLACEMENT_3D('',#1489,#1205,#1206);
#1134=AXIS2_PLACEMENT_3D('',#1492,#1208,#1209);
#1135=AXIS2_PLACEMENT_3D('',#1493,#1210,#1211);
#1136=AXIS2_PLACEMENT_3D('',#1502,#1216,#1217);
#1137=AXIS2_PLACEMENT_3D('',#1511,#1222,#1223);
#1138=AXIS2_PLACEMENT_3D('',#1514,#1226,#1227);
#1139=AXIS2_PLACEMENT_3D('',#1532,#1237,#1238);
#1140=AXIS2_PLACEMENT_3D('',#1540,#1243,#1244);
#1141=AXIS2_PLACEMENT_3D('',#1543,#1245,#1246);
#1142=AXIS2_PLACEMENT_3D('',#1547,#1248,#1249);
#1143=AXIS2_PLACEMENT_3D('',#1549,#1251,#1252);
#1144=AXIS2_PLACEMENT_3D('',#1592,#1275,#1276);
#1145=AXIS2_PLACEMENT_3D('',#1594,#1277,#1278);
#1146=AXIS2_PLACEMENT_3D('',#1596,#1279,#1280);
#1147=AXIS2_PLACEMENT_3D('',#1598,#1282,#1283);
#1148=AXIS2_PLACEMENT_3D('',#1601,#1284,#1285);
#1149=AXIS2_PLACEMENT_3D('',#1605,#1287,#1288);
#1150=AXIS2_PLACEMENT_3D('',#1607,#1290,#1291);
#1151=AXIS2_PLACEMENT_3D('',#1613,#1295,#1296);
#1152=AXIS2_PLACEMENT_3D('',#1616,#1297,#1298);
#1153=AXIS2_PLACEMENT_3D('',#1620,#1300,#1301);
#1154=AXIS2_PLACEMENT_3D('',#1622,#1303,#1304);
#1155=AXIS2_PLACEMENT_3D('',#1625,#1307,#1308);
#1156=AXIS2_PLACEMENT_3D('',#1628,#1309,#1310);
#1157=AXIS2_PLACEMENT_3D('',#1632,#1312,#1313);
#1158=AXIS2_PLACEMENT_3D('',#1634,#1315,#1316);
#1159=AXIS2_PLACEMENT_3D('',#1637,#1319,#1320);
#1160=AXIS2_PLACEMENT_3D('',#1639,#1321,#1322);
#1161=AXIS2_PLACEMENT_3D('',#1642,#1324,#1325);
#1162=AXIS2_PLACEMENT_3D('',#1643,#1326,#1327);
#1163=AXIS2_PLACEMENT_3D('',#1646,#1330,#1331);
#1164=AXIS2_PLACEMENT_3D('',#1655,#1336,#1337);
#1165=AXIS2_PLACEMENT_3D('',#1661,#1341,#1342);
#1166=AXIS2_PLACEMENT_3D('',#1668,#1347,#1348);
#1167=AXIS2_PLACEMENT_3D('',#1677,#1353,#1354);
#1168=AXIS2_PLACEMENT_3D('',#1683,#1358,#1359);
#1169=AXIS2_PLACEMENT_3D('',#1690,#1364,#1365);
#1170=AXIS2_PLACEMENT_3D('',#1696,#1369,#1370);
#1171=AXIS2_PLACEMENT_3D('',#1698,#1372,#1373);
#1172=AXIS2_PLACEMENT_3D('',#1700,#1375,#1376);
#1173=AXIS2_PLACEMENT_3D('',#1706,#1380,#1381);
#1174=AXIS2_PLACEMENT_3D('',#1708,#1383,#1384);
#1175=AXIS2_PLACEMENT_3D('',#1710,#1386,#1387);
#1176=AXIS2_PLACEMENT_3D('',#1716,#1391,#1392);
#1177=AXIS2_PLACEMENT_3D('',#1720,#1395,#1396);
#1178=AXIS2_PLACEMENT_3D('',#1726,#1400,#1401);
#1179=AXIS2_PLACEMENT_3D('',#1730,#1404,#1405);
#1180=AXIS2_PLACEMENT_3D('',#1732,#1407,#1408);
#1181=AXIS2_PLACEMENT_3D('',#1736,#1411,#1412);
#1182=AXIS2_PLACEMENT_3D('',#1738,#1414,#1415);
#1183=AXIS2_PLACEMENT_3D('',#1744,#1419,#1420);
#1184=AXIS2_PLACEMENT_3D('',#1748,#1423,#1424);
#1185=AXIS2_PLACEMENT_3D('',#1752,#1427,#1428);
#1186=AXIS2_PLACEMENT_3D('',#1754,#1430,#1431);
#1187=AXIS2_PLACEMENT_3D('',#1756,#1433,#1434);
#1188=AXIS2_PLACEMENT_3D('',#1760,#1437,#1438);
#1189=AXIS2_PLACEMENT_3D('',#1764,#1441,#1442);
#1190=AXIS2_PLACEMENT_3D('',#1773,#1447,#1448);
#1191=AXIS2_PLACEMENT_3D('',#1777,#1451,#1452);
#1192=AXIS2_PLACEMENT_3D('',#1780,#1455,#1456);
#1193=AXIS2_PLACEMENT_3D('',#1783,#1459,#1460);
#1194=AXIS2_PLACEMENT_3D('',#1787,#1463,#1464);
#1195=AXIS2_PLACEMENT_3D('',#1791,#1467,#1468);
#1196=AXIS2_PLACEMENT_3D('',#1792,#1469,#1470);
#1197=AXIS2_PLACEMENT_3D('',#1796,#1473,#1474);
#1198=AXIS2_PLACEMENT_3D('',#1802,#1478,#1479);
#1199=AXIS2_PLACEMENT_3D('',#1805,#1482,#1483);
#1200=AXIS2_PLACEMENT_3D('',#1806,#1484,#1485);
#1201=DIRECTION('axis',(0.,0.,1.));
#1202=DIRECTION('refdir',(1.,0.,0.));
#1203=DIRECTION('center_axis',(-1.,0.,0.));
#1204=DIRECTION('ref_axis',(0.,0.,-1.));
#1205=DIRECTION('center_axis',(-1.,0.,0.));
#1206=DIRECTION('ref_axis',(0.,0.,-1.));
#1207=DIRECTION('',(-1.,0.,0.));
#1208=DIRECTION('center_axis',(1.,0.,0.));
#1209=DIRECTION('ref_axis',(0.,0.,-1.));
#1210=DIRECTION('center_axis',(0.,0.,-1.));
#1211=DIRECTION('ref_axis',(0.,-1.,0.));
#1212=DIRECTION('',(0.,-1.,0.));
#1213=DIRECTION('',(1.,0.,0.));
#1214=DIRECTION('',(0.,1.,0.));
#1215=DIRECTION('',(-1.,0.,0.));
#1216=DIRECTION('center_axis',(0.,0.,1.));
#1217=DIRECTION('ref_axis',(0.,1.,0.));
#1218=DIRECTION('',(0.,1.,0.));
#1219=DIRECTION('',(-1.,0.,0.));
#1220=DIRECTION('',(0.,-1.,0.));
#1221=DIRECTION('',(-1.,0.,0.));
#1222=DIRECTION('center_axis',(0.,-1.,0.));
#1223=DIRECTION('ref_axis',(0.,0.,1.));
#1224=DIRECTION('',(0.,0.,1.));
#1225=DIRECTION('',(0.,0.,-1.));
#1226=DIRECTION('center_axis',(-1.,0.,0.));
#1227=DIRECTION('ref_axis',(0.,0.,1.));
#1228=DIRECTION('',(0.,0.,1.));
#1229=DIRECTION('',(0.,1.,0.));
#1230=DIRECTION('',(0.,0.,1.));
#1231=DIRECTION('',(0.,-1.,0.));
#1232=DIRECTION('',(0.,0.,1.));
#1233=DIRECTION('',(0.,1.,0.));
#1234=DIRECTION('',(0.,0.,1.));
#1235=DIRECTION('',(0.,1.,0.));
#1236=DIRECTION('',(0.,0.,1.));
#1237=DIRECTION('center_axis',(0.,1.,0.));
#1238=DIRECTION('ref_axis',(0.,0.,1.));
#1239=DIRECTION('',(0.,0.,-1.));
#1240=DIRECTION('',(-1.,0.,0.));
#1241=DIRECTION('',(0.,0.,1.));
#1242=DIRECTION('',(1.,0.,0.));
#1243=DIRECTION('center_axis',(-1.,0.,0.));
#1244=DIRECTION('ref_axis',(0.,-0.707106781186548,0.707106781186547));
#1245=DIRECTION('center_axis',(1.,0.,0.));
#1246=DIRECTION('ref_axis',(0.,-0.707106781186548,0.707106781186547));
#1247=DIRECTION('',(-1.,0.,0.));
#1248=DIRECTION('center_axis',(-1.,0.,0.));
#1249=DIRECTION('ref_axis',(0.,-0.707106781186548,0.707106781186547));
#1250=DIRECTION('',(1.,0.,0.));
#1251=DIRECTION('center_axis',(0.,1.,0.));
#1252=DIRECTION('ref_axis',(0.,0.,1.));
#1253=DIRECTION('',(0.,0.,1.));
#1254=DIRECTION('',(0.,0.,-1.));
#1255=DIRECTION('',(1.,0.,0.));
#1256=DIRECTION('',(0.,0.,1.));
#1257=DIRECTION('',(-1.,0.,0.));
#1258=DIRECTION('',(0.707106781186548,0.,-0.707106781186548));
#1259=DIRECTION('',(-0.707106781186548,0.,-0.707106781186548));
#1260=DIRECTION('',(1.,0.,0.));
#1261=DIRECTION('',(0.,0.,1.));
#1262=DIRECTION('',(-1.,0.,0.));
#1263=DIRECTION('',(0.,0.,-1.));
#1264=DIRECTION('',(1.,0.,0.));
#1265=DIRECTION('',(0.,0.,1.));
#1266=DIRECTION('',(-1.,0.,0.));
#1267=DIRECTION('',(0.,0.,-1.));
#1268=DIRECTION('',(1.,0.,0.));
#1269=DIRECTION('',(-0.707106781186547,0.,0.707106781186547));
#1270=DIRECTION('',(0.,0.,-1.));
#1271=DIRECTION('',(0.707106781186547,0.,0.707106781186547));
#1272=DIRECTION('',(-1.,0.,0.));
#1273=DIRECTION('',(0.,0.,-1.));
#1274=DIRECTION('',(1.,0.,0.));
#1275=DIRECTION('center_axis',(1.,0.,0.));
#1276=DIRECTION('ref_axis',(0.,-0.707106781186548,-0.707106781186547));
#1277=DIRECTION('center_axis',(-1.,0.,0.));
#1278=DIRECTION('ref_axis',(0.,-0.707106781186548,-0.707106781186547));
#1279=DIRECTION('center_axis',(1.,0.,0.));
#1280=DIRECTION('ref_axis',(0.,-0.707106781186548,-0.707106781186547));
#1281=DIRECTION('',(-1.,0.,0.));
#1282=DIRECTION('center_axis',(0.,0.,-1.));
#1283=DIRECTION('ref_axis',(-0.707106781186547,-0.707106781186548,0.));
#1284=DIRECTION('center_axis',(0.,0.,1.));
#1285=DIRECTION('ref_axis',(-0.707106781186547,-0.707106781186548,0.));
#1286=DIRECTION('',(0.,0.,-1.));
#1287=DIRECTION('center_axis',(0.,0.,-1.));
#1288=DIRECTION('ref_axis',(-0.707106781186547,-0.707106781186548,0.));
#1289=DIRECTION('',(0.,0.,1.));
#1290=DIRECTION('center_axis',(0.,-1.,0.));
#1291=DIRECTION('ref_axis',(-1.,0.,0.));
#1292=DIRECTION('',(-1.,0.,0.));
#1293=DIRECTION('',(0.,0.,1.));
#1294=DIRECTION('',(1.,0.,0.));
#1295=DIRECTION('center_axis',(0.,0.,-1.));
#1296=DIRECTION('ref_axis',(-0.707106781186547,0.707106781186547,0.));
#1297=DIRECTION('center_axis',(0.,0.,1.));
#1298=DIRECTION('ref_axis',(-0.707106781186547,0.707106781186547,0.));
#1299=DIRECTION('',(0.,0.,-1.));
#1300=DIRECTION('center_axis',(0.,0.,-1.));
#1301=DIRECTION('ref_axis',(-0.707106781186547,0.707106781186547,0.));
#1302=DIRECTION('',(0.,0.,1.));
#1303=DIRECTION('center_axis',(-1.,0.,0.));
#1304=DIRECTION('ref_axis',(0.,1.,0.));
#1305=DIRECTION('',(0.,-1.,0.));
#1306=DIRECTION('',(0.,1.,0.));
#1307=DIRECTION('center_axis',(0.,0.,-1.));
#1308=DIRECTION('ref_axis',(0.707106781186547,0.707106781186548,0.));
#1309=DIRECTION('center_axis',(0.,0.,1.));
#1310=DIRECTION('ref_axis',(0.707106781186547,0.707106781186548,0.));
#1311=DIRECTION('',(0.,0.,-1.));
#1312=DIRECTION('center_axis',(0.,0.,-1.));
#1313=DIRECTION('ref_axis',(0.707106781186547,0.707106781186548,0.));
#1314=DIRECTION('',(0.,0.,1.));
#1315=DIRECTION('center_axis',(0.,1.,0.));
#1316=DIRECTION('ref_axis',(1.,0.,0.));
#1317=DIRECTION('',(-1.,0.,0.));
#1318=DIRECTION('',(1.,0.,0.));
#1319=DIRECTION('center_axis',(0.,0.,-1.));
#1320=DIRECTION('ref_axis',(0.707106781186548,-0.707106781186547,0.));
#1321=DIRECTION('center_axis',(0.,0.,1.));
#1322=DIRECTION('ref_axis',(0.707106781186548,-0.707106781186547,0.));
#1323=DIRECTION('',(0.,0.,-1.));
#1324=DIRECTION('center_axis',(0.,0.,-1.));
#1325=DIRECTION('ref_axis',(0.707106781186548,-0.707106781186547,0.));
#1326=DIRECTION('center_axis',(1.,0.,0.));
#1327=DIRECTION('ref_axis',(0.,-1.,0.));
#1328=DIRECTION('',(0.,1.,0.));
#1329=DIRECTION('',(0.,-1.,0.));
#1330=DIRECTION('center_axis',(0.,-0.554699875771218,-0.832050507973762));
#1331=DIRECTION('ref_axis',(0.,-0.832050507973762,0.554699875771218));
#1332=DIRECTION('',(0.,-0.832050507973762,0.554699875771218));
#1333=DIRECTION('',(1.,0.,0.));
#1334=DIRECTION('',(0.,0.832050507973762,-0.554699875771218));
#1335=DIRECTION('',(-1.,0.,0.));
#1336=DIRECTION('center_axis',(0.,1.,0.));
#1337=DIRECTION('ref_axis',(0.,0.,1.));
#1338=DIRECTION('',(0.,0.,1.));
#1339=DIRECTION('',(-1.,0.,0.));
#1340=DIRECTION('',(0.,0.,1.));
#1341=DIRECTION('center_axis',(1.,0.,0.));
#1342=DIRECTION('ref_axis',(0.,0.,-1.));
#1343=DIRECTION('',(0.,1.,0.));
#1344=DIRECTION('',(0.,0.,1.));
#1345=DIRECTION('',(0.,1.,0.));
#1346=DIRECTION('',(0.,1.,0.));
#1347=DIRECTION('center_axis',(0.,-0.55469991868918,0.832050479361809));
#1348=DIRECTION('ref_axis',(0.,0.832050479361809,0.55469991868918));
#1349=DIRECTION('',(0.,0.832050479361809,0.55469991868918));
#1350=DIRECTION('',(1.,0.,0.));
#1351=DIRECTION('',(0.,-0.832050479361809,-0.55469991868918));
#1352=DIRECTION('',(-1.,0.,0.));
#1353=DIRECTION('center_axis',(0.,1.,0.));
#1354=DIRECTION('ref_axis',(0.,0.,1.));
#1355=DIRECTION('',(0.,0.,-1.));
#1356=DIRECTION('',(1.,0.,0.));
#1357=DIRECTION('',(0.,0.,-1.));
#1358=DIRECTION('center_axis',(-1.,0.,0.));
#1359=DIRECTION('ref_axis',(0.,0.,1.));
#1360=DIRECTION('',(0.,1.,0.));
#1361=DIRECTION('',(0.,0.,-1.));
#1362=DIRECTION('',(0.,1.,0.));
#1363=DIRECTION('',(0.,1.,0.));
#1364=DIRECTION('center_axis',(0.,-1.,0.));
#1365=DIRECTION('ref_axis',(-1.,0.,0.));
#1366=DIRECTION('',(1.,0.,0.));
#1367=DIRECTION('',(-1.,0.,0.));
#1368=DIRECTION('',(0.,0.,-1.));
#1369=DIRECTION('center_axis',(0.,0.,-1.));
#1370=DIRECTION('ref_axis',(-1.,0.,0.));
#1371=DIRECTION('',(0.,-1.,0.));
#1372=DIRECTION('center_axis',(0.,0.,-1.));
#1373=DIRECTION('ref_axis',(-1.,0.,0.));
#1374=DIRECTION('',(0.,1.,0.));
#1375=DIRECTION('center_axis',(0.,-1.,0.));
#1376=DIRECTION('ref_axis',(1.,0.,0.));
#1377=DIRECTION('',(-1.,0.,0.));
#1378=DIRECTION('',(1.,0.,0.));
#1379=DIRECTION('',(0.,0.,1.));
#1380=DIRECTION('center_axis',(0.,0.,1.));
#1381=DIRECTION('ref_axis',(1.,0.,0.));
#1382=DIRECTION('',(0.,-1.,0.));
#1383=DIRECTION('center_axis',(0.,0.,1.));
#1384=DIRECTION('ref_axis',(1.,0.,0.));
#1385=DIRECTION('',(0.,1.,0.));
#1386=DIRECTION('center_axis',(0.707106781186548,0.,-0.707106781186548));
#1387=DIRECTION('ref_axis',(-0.707106781186548,0.,-0.707106781186548));
#1388=DIRECTION('',(0.,-1.,0.));
#1389=DIRECTION('',(-0.707106781186547,0.,-0.707106781186547));
#1390=DIRECTION('',(0.,1.,0.));
#1391=DIRECTION('center_axis',(0.,1.,0.));
#1392=DIRECTION('ref_axis',(0.,0.,1.));
#1393=DIRECTION('',(-1.,0.,0.));
#1394=DIRECTION('',(0.,0.,-1.));
#1395=DIRECTION('center_axis',(0.,0.,-1.));
#1396=DIRECTION('ref_axis',(-1.,0.,0.));
#1397=DIRECTION('',(0.,1.,0.));
#1398=DIRECTION('',(-1.,0.,0.));
#1399=DIRECTION('',(0.,1.,0.));
#1400=DIRECTION('center_axis',(-0.707106781186548,0.,0.707106781186548));
#1401=DIRECTION('ref_axis',(0.707106781186548,0.,0.707106781186548));
#1402=DIRECTION('',(0.707106781186548,0.,0.707106781186548));
#1403=DIRECTION('',(0.,1.,0.));
#1404=DIRECTION('center_axis',(0.,1.,0.));
#1405=DIRECTION('ref_axis',(0.,0.,1.));
#1406=DIRECTION('',(1.,0.,0.));
#1407=DIRECTION('center_axis',(-0.707106781186548,0.,-0.707106781186548));
#1408=DIRECTION('ref_axis',(-0.707106781186548,0.,0.707106781186548));
#1409=DIRECTION('',(0.,-1.,0.));
#1410=DIRECTION('',(-0.707106781186548,0.,0.707106781186548));
#1411=DIRECTION('center_axis',(0.,1.,0.));
#1412=DIRECTION('ref_axis',(0.,0.,1.));
#1413=DIRECTION('',(-1.,0.,0.));
#1414=DIRECTION('center_axis',(0.707106781186548,0.,0.707106781186548));
#1415=DIRECTION('ref_axis',(0.707106781186548,0.,-0.707106781186548));
#1416=DIRECTION('',(0.,-1.,0.));
#1417=DIRECTION('',(0.707106781186547,0.,-0.707106781186547));
#1418=DIRECTION('',(0.,1.,0.));
#1419=DIRECTION('center_axis',(0.,1.,0.));
#1420=DIRECTION('ref_axis',(0.,0.,1.));
#1421=DIRECTION('',(0.,0.,-1.));
#1422=DIRECTION('',(1.,0.,0.));
#1423=DIRECTION('center_axis',(1.,0.,0.));
#1424=DIRECTION('ref_axis',(0.,0.,-1.));
#1425=DIRECTION('',(0.,1.,0.));
#1426=DIRECTION('',(0.,0.,-1.));
#1427=DIRECTION('center_axis',(-1.,0.,0.));
#1428=DIRECTION('ref_axis',(0.,0.,1.));
#1429=DIRECTION('',(0.,1.,0.));
#1430=DIRECTION('center_axis',(1.,0.,0.));
#1431=DIRECTION('ref_axis',(0.,0.,-1.));
#1432=DIRECTION('',(0.,1.,0.));
#1433=DIRECTION('center_axis',(1.,0.,0.));
#1434=DIRECTION('ref_axis',(0.,0.,-1.));
#1435=DIRECTION('',(0.,0.,-1.));
#1436=DIRECTION('',(0.,1.,0.));
#1437=DIRECTION('center_axis',(0.,0.,1.));
#1438=DIRECTION('ref_axis',(1.,0.,0.));
#1439=DIRECTION('',(0.,1.,0.));
#1440=DIRECTION('',(1.,0.,0.));
#1441=DIRECTION('center_axis',(-1.,0.,0.));
#1442=DIRECTION('ref_axis',(0.,0.,1.));
#1443=DIRECTION('',(0.,0.,-1.));
#1444=DIRECTION('',(0.,1.,0.));
#1445=DIRECTION('',(0.,0.,1.));
#1446=DIRECTION('',(0.,1.,0.));
#1447=DIRECTION('center_axis',(1.,0.,0.));
#1448=DIRECTION('ref_axis',(0.,0.,-1.));
#1449=DIRECTION('',(0.,1.,0.));
#1450=DIRECTION('',(0.,0.,-1.));
#1451=DIRECTION('center_axis',(0.,1.,0.));
#1452=DIRECTION('ref_axis',(0.,0.,1.));
#1453=DIRECTION('',(-1.,0.,0.));
#1454=DIRECTION('',(1.,0.,0.));
#1455=DIRECTION('center_axis',(-1.,0.,0.));
#1456=DIRECTION('ref_axis',(0.,0.,1.));
#1457=DIRECTION('',(0.,1.,0.));
#1458=DIRECTION('',(0.,1.,0.));
#1459=DIRECTION('center_axis',(0.,0.,-1.));
#1460=DIRECTION('ref_axis',(-1.,0.,0.));
#1461=DIRECTION('',(0.,1.,0.));
#1462=DIRECTION('',(-1.,0.,0.));
#1463=DIRECTION('center_axis',(-1.,0.,0.));
#1464=DIRECTION('ref_axis',(0.,0.,1.));
#1465=DIRECTION('',(0.,1.,0.));
#1466=DIRECTION('',(0.,0.,1.));
#1467=DIRECTION('center_axis',(0.,0.,1.));
#1468=DIRECTION('ref_axis',(1.,0.,0.));
#1469=DIRECTION('center_axis',(0.,0.,-1.));
#1470=DIRECTION('ref_axis',(-1.,0.,0.));
#1471=DIRECTION('',(1.,0.,0.));
#1472=DIRECTION('',(0.,1.,0.));
#1473=DIRECTION('center_axis',(1.,0.,0.));
#1474=DIRECTION('ref_axis',(0.,0.,-1.));
#1475=DIRECTION('',(0.,0.,-1.));
#1476=DIRECTION('',(0.,1.,0.));
#1477=DIRECTION('',(0.,0.,1.));
#1478=DIRECTION('center_axis',(0.,0.,1.));
#1479=DIRECTION('ref_axis',(1.,0.,0.));
#1480=DIRECTION('',(-1.,0.,0.));
#1481=DIRECTION('',(1.,0.,0.));
#1482=DIRECTION('center_axis',(0.,1.,0.));
#1483=DIRECTION('ref_axis',(0.,0.,1.));
#1484=DIRECTION('center_axis',(0.,1.,0.));
#1485=DIRECTION('ref_axis',(1.,0.,0.));
#1486=CARTESIAN_POINT('',(0.,0.,0.));
#1487=CARTESIAN_POINT('Origin',(36.0000005364418,7.7,10.0000003874302));
#1488=CARTESIAN_POINT('',(36.0000005364418,7.7,11.0000003874302));
#1489=CARTESIAN_POINT('Origin',(36.0000005364418,7.7,10.0000003874302));
#1490=CARTESIAN_POINT('',(35.0000005364418,7.7,11.0000003874302));
#1491=CARTESIAN_POINT('',(36.0000005364418,7.7,11.0000003874302));
#1492=CARTESIAN_POINT('Origin',(35.,7.7,10.0000003874302));
#1493=CARTESIAN_POINT('Origin',(36.0000005364418,12.5000001862645,15.0000003278255));
#1494=CARTESIAN_POINT('',(36.0000005364418,12.5000001862645,15.0000003278255));
#1495=CARTESIAN_POINT('',(36.0000005364418,10.0000001862645,15.0000003278255));
#1496=CARTESIAN_POINT('',(36.0000005364418,6.25000009313226,15.0000003278255));
#1497=CARTESIAN_POINT('',(35.0000005364418,12.5000001862645,15.0000003278255));
#1498=CARTESIAN_POINT('',(27.1250003995374,12.5,15.0000003278255));
#1499=CARTESIAN_POINT('',(35.0000005364418,10.0000001862645,15.0000003278255));
#1500=CARTESIAN_POINT('',(35.,6.25000009313226,15.0000003278255));
#1501=CARTESIAN_POINT('',(36.0000005364418,10.0000001862645,15.0000003278255));
#1502=CARTESIAN_POINT('Origin',(36.0000005364418,10.0000001862645,22.0000003278255));
#1503=CARTESIAN_POINT('',(36.0000005364418,10.0000001862645,22.0000003278255));
#1504=CARTESIAN_POINT('',(36.0000005364418,12.5000001862645,22.0000003278255));
#1505=CARTESIAN_POINT('',(36.0000005364418,5.00000009313226,22.0000003278255));
#1506=CARTESIAN_POINT('',(35.0000005364418,10.0000001862645,22.0000003278255));
#1507=CARTESIAN_POINT('',(36.0000005364418,10.0000001862645,22.0000003278255));
#1508=CARTESIAN_POINT('',(35.0000005364418,12.5000001862645,22.0000003278255));
#1509=CARTESIAN_POINT('',(35.,5.00000009313226,22.0000003278255));
#1510=CARTESIAN_POINT('',(27.1250003995374,12.5,22.0000003278255));
#1511=CARTESIAN_POINT('Origin',(36.0000005364418,10.0000001862645,15.0000003278255));
#1512=CARTESIAN_POINT('',(36.0000005364418,10.0000001862645,20.5000003576279));
#1513=CARTESIAN_POINT('',(35.,10.0000001862645,-7.49999983608723));
#1514=CARTESIAN_POINT('Origin',(35.,0.,-30.));
#1515=CARTESIAN_POINT('',(35.,12.5,-30.));
#1516=CARTESIAN_POINT('',(35.,12.5,25.));
#1517=CARTESIAN_POINT('',(35.,8.7,-30.));
#1518=CARTESIAN_POINT('',(35.,0.,-30.));
#1519=CARTESIAN_POINT('',(35.,8.7,-27.000000923872));
#1520=CARTESIAN_POINT('',(35.,8.7,-29.2500003427267));
#1521=CARTESIAN_POINT('',(35.,1.5,-27.000000923872));
#1522=CARTESIAN_POINT('',(35.,0.,-27.000000923872));
#1523=CARTESIAN_POINT('',(35.,1.5,22.0000008493662));
#1524=CARTESIAN_POINT('',(35.,1.5,-16.2500000186265));
#1525=CARTESIAN_POINT('',(35.,8.7,22.0000008493662));
#1526=CARTESIAN_POINT('',(35.,0.,22.0000008493662));
#1527=CARTESIAN_POINT('',(35.,8.7,25.));
#1528=CARTESIAN_POINT('',(35.,8.7,-3.2499996945262));
#1529=CARTESIAN_POINT('',(35.,12.5,25.));
#1530=CARTESIAN_POINT('',(35.,0.,25.));
#1531=CARTESIAN_POINT('',(35.,12.5,25.));
#1532=CARTESIAN_POINT('Origin',(18.250000262633,12.5,-2.5000000372529));
#1533=CARTESIAN_POINT('',(36.0000005364418,12.5,-31.000000461936));
#1534=CARTESIAN_POINT('',(36.0000005364418,12.5,-31.000000461936));
#1535=CARTESIAN_POINT('',(0.499999988824129,12.5,-30.999999307096));
#1536=CARTESIAN_POINT('',(-39.0000005811453,12.5,-31.000000461936));
#1537=CARTESIAN_POINT('',(0.499999988824129,12.5,-30.));
#1538=CARTESIAN_POINT('',(0.499999988824129,12.5,-30.999999307096));
#1539=CARTESIAN_POINT('',(35.,12.5,-30.));
#1540=CARTESIAN_POINT('Origin',(-0.750000141561031,5.5,21.));
#1541=CARTESIAN_POINT('',(0.,5.5,25.));
#1542=CARTESIAN_POINT('',(0.,1.5,21.));
#1543=CARTESIAN_POINT('Origin',(0.,5.5,21.));
#1544=CARTESIAN_POINT('',(-3.00000004470348,1.5,21.));
#1545=CARTESIAN_POINT('',(-0.750000141561031,1.5,21.));
#1546=CARTESIAN_POINT('',(-3.00000004470348,5.5,25.000000372529));
#1547=CARTESIAN_POINT('Origin',(-3.00000004470348,5.5,21.));
#1548=CARTESIAN_POINT('',(-0.750000141561031,5.5,25.));
#1549=CARTESIAN_POINT('Origin',(-1.50000028312206,1.5,-2.5000000372529));
#1550=CARTESIAN_POINT('',(-3.00000004470348,1.5,26.0000003874302));
#1551=CARTESIAN_POINT('',(-3.00000004470348,1.5,11.2500001676381));
#1552=CARTESIAN_POINT('',(0.,1.5,26.0000003874302));
#1553=CARTESIAN_POINT('',(0.,1.5,11.7500001750886));
#1554=CARTESIAN_POINT('',(0.499999988824129,1.5,26.0000003874302));
#1555=CARTESIAN_POINT('',(36.0000005364418,1.5,26.0000003874302));
#1556=CARTESIAN_POINT('',(0.499999988824129,1.5,24.9999994412065));
#1557=CARTESIAN_POINT('',(0.499999988824129,1.5,11.2499997019768));
#1558=CARTESIAN_POINT('',(32.0000004768372,1.5,25.000000372529));
#1559=CARTESIAN_POINT('',(16.749999858439,1.5,25.));
#1560=CARTESIAN_POINT('',(32.0000004768372,1.5,25.000000372529));
#1561=CARTESIAN_POINT('',(32.0000004768372,1.5,-30.0000004470348));
#1562=CARTESIAN_POINT('',(32.0000004768372,1.5,-30.0000004470348));
#1563=CARTESIAN_POINT('',(0.499999988824129,1.5,-30.));
#1564=CARTESIAN_POINT('',(-0.500000147148967,1.5,-30.));
#1565=CARTESIAN_POINT('',(0.499999988824129,1.5,-30.999999307096));
#1566=CARTESIAN_POINT('',(0.499999988824129,1.5,-16.7499996721745));
#1567=CARTESIAN_POINT('',(0.,1.5,-31.000000461936));
#1568=CARTESIAN_POINT('',(-39.0000005811453,1.5,-31.000000461936));
#1569=CARTESIAN_POINT('',(0.,1.5,-26.));
#1570=CARTESIAN_POINT('',(0.,1.5,-16.2500002421439));
#1571=CARTESIAN_POINT('',(-3.00000004470348,1.5,-26.));
#1572=CARTESIAN_POINT('',(-2.25000016391277,1.5,-26.));
#1573=CARTESIAN_POINT('',(-3.00000004470348,1.5,-31.000000461936));
#1574=CARTESIAN_POINT('',(-3.00000004470348,1.5,-16.7500002495944));
#1575=CARTESIAN_POINT('',(-3.4999999217689,1.5,-30.999999307096));
#1576=CARTESIAN_POINT('',(-39.0000005811453,1.5,-31.000000461936));
#1577=CARTESIAN_POINT('',(-3.4999999217689,1.5,-30.));
#1578=CARTESIAN_POINT('',(-3.4999999217689,1.5,-16.2500000186265));
#1579=CARTESIAN_POINT('',(-35.0000005215406,1.5,-30.0000004470348));
#1580=CARTESIAN_POINT('',(-19.750000141561,1.5,-30.));
#1581=CARTESIAN_POINT('',(-38.0000005662441,1.5,-27.0000004023314));
#1582=CARTESIAN_POINT('',(-35.0000005215406,1.5,-30.0000004470348));
#1583=CARTESIAN_POINT('',(-38.0000005662441,1.5,22.0000003278255));
#1584=CARTESIAN_POINT('',(-38.,1.5,11.2499999813735));
#1585=CARTESIAN_POINT('',(-35.0000008940697,1.5,25.));
#1586=CARTESIAN_POINT('',(-38.0000005662441,1.5,22.0000003278255));
#1587=CARTESIAN_POINT('',(-3.4999999217689,1.5,24.9999994412065));
#1588=CARTESIAN_POINT('',(-2.50000010244548,1.5,25.));
#1589=CARTESIAN_POINT('',(-3.4999999217689,1.5,26.0000003874302));
#1590=CARTESIAN_POINT('',(-3.4999999217689,1.5,11.7500001750886));
#1591=CARTESIAN_POINT('',(36.0000005364418,1.5,26.0000003874302));
#1592=CARTESIAN_POINT('Origin',(-2.25000016391277,5.5,-26.));
#1593=CARTESIAN_POINT('',(-3.00000004470348,5.5,-30.));
#1594=CARTESIAN_POINT('Origin',(-3.00000004470348,5.5,-26.));
#1595=CARTESIAN_POINT('',(0.,5.5,-30.0000004470348));
#1596=CARTESIAN_POINT('Origin',(0.,5.5,-26.));
#1597=CARTESIAN_POINT('',(-2.25000016391277,5.5,-30.));
#1598=CARTESIAN_POINT('Origin',(-15.0000005811453,6.70000007450581,26.0000003874302));
#1599=CARTESIAN_POINT('',(-16.5000005811453,6.70000007450581,26.0000003874302));
#1600=CARTESIAN_POINT('',(-15.0000005811453,5.20000007450581,26.0000003874302));
#1601=CARTESIAN_POINT('Origin',(-15.0000005811453,6.70000007450581,26.0000003874302));
#1602=CARTESIAN_POINT('',(-15.0000005811453,5.20000007450581,25.));
#1603=CARTESIAN_POINT('',(-15.0000005811453,5.20000007450581,26.0000003874302));
#1604=CARTESIAN_POINT('',(-16.5000005811453,6.70000007450581,25.));
#1605=CARTESIAN_POINT('Origin',(-15.0000005811453,6.70000007450581,25.));
#1606=CARTESIAN_POINT('',(-16.5000005811453,6.70000007450581,26.0000003874302));
#1607=CARTESIAN_POINT('Origin',(-6.00000042468309,5.20000007450581,26.0000003874302));
#1608=CARTESIAN_POINT('',(-7.50000042468309,5.20000007450581,26.0000003874302));
#1609=CARTESIAN_POINT('',(-2.75000021792948,5.20000007450581,26.0000003874302));
#1610=CARTESIAN_POINT('',(-7.50000042468309,5.20000007450581,25.));
#1611=CARTESIAN_POINT('',(-7.50000042468309,5.20000007450581,26.0000003874302));
#1612=CARTESIAN_POINT('',(-4.750000173226,5.20000007450581,25.));
#1613=CARTESIAN_POINT('Origin',(-15.0000005811453,7.70000013411045,26.0000003874302));
#1614=CARTESIAN_POINT('',(-15.0000005811453,9.20000013411045,26.0000003874302));
#1615=CARTESIAN_POINT('',(-16.5000005811453,7.70000013411045,26.0000003874302));
#1616=CARTESIAN_POINT('Origin',(-15.0000005811453,7.70000013411045,26.0000003874302));
#1617=CARTESIAN_POINT('',(-16.5000005811453,7.70000013411045,25.));
#1618=CARTESIAN_POINT('',(-16.5000005811453,7.70000013411045,26.0000003874302));
#1619=CARTESIAN_POINT('',(-15.0000005811453,9.20000013411045,25.));
#1620=CARTESIAN_POINT('Origin',(-15.0000005811453,7.70000013411045,25.));
#1621=CARTESIAN_POINT('',(-15.0000005811453,9.20000013411045,26.0000003874302));
#1622=CARTESIAN_POINT('Origin',(-16.5000005811453,5.20000007450581,26.0000003874302));
#1623=CARTESIAN_POINT('',(-16.5000005811453,2.6000000372529,25.));
#1624=CARTESIAN_POINT('',(-16.5000005811453,2.6000000372529,26.0000003874302));
#1625=CARTESIAN_POINT('Origin',(-7.50000042468309,7.70000013411045,26.0000003874302));
#1626=CARTESIAN_POINT('',(-6.00000042468309,7.70000013411045,26.0000003874302));
#1627=CARTESIAN_POINT('',(-7.50000042468309,9.20000013411045,26.0000003874302));
#1628=CARTESIAN_POINT('Origin',(-7.50000042468309,7.70000013411045,26.0000003874302));
#1629=CARTESIAN_POINT('',(-7.50000042468309,9.20000013411045,25.));
#1630=CARTESIAN_POINT('',(-7.50000042468309,9.20000013411045,26.0000003874302));
#1631=CARTESIAN_POINT('',(-6.00000042468309,7.70000013411045,25.));
#1632=CARTESIAN_POINT('Origin',(-7.50000042468309,7.70000013411045,25.));
#1633=CARTESIAN_POINT('',(-6.00000042468309,7.70000013411045,26.0000003874302));
#1634=CARTESIAN_POINT('Origin',(-16.5000005811453,9.20000013411045,26.0000003874302));
#1635=CARTESIAN_POINT('',(-10.0000002514571,9.20000013411045,25.));
#1636=CARTESIAN_POINT('',(-8.00000029616058,9.20000013411045,26.0000003874302));
#1637=CARTESIAN_POINT('Origin',(-7.50000042468309,6.70000007450581,26.0000003874302));
#1638=CARTESIAN_POINT('',(-6.00000042468309,6.70000007450581,26.0000003874302));
#1639=CARTESIAN_POINT('Origin',(-7.50000042468309,6.70000007450581,26.0000003874302));
#1640=CARTESIAN_POINT('',(-6.00000042468309,6.70000007450581,25.));
#1641=CARTESIAN_POINT('',(-6.00000042468309,6.70000007450581,26.0000003874302));
#1642=CARTESIAN_POINT('Origin',(-7.50000042468309,6.70000007450581,25.));
#1643=CARTESIAN_POINT('Origin',(-6.00000042468309,9.20000013411045,26.0000003874302));
#1644=CARTESIAN_POINT('',(-6.00000042468309,4.60000006705523,25.));
#1645=CARTESIAN_POINT('',(-6.00000042468309,4.60000006705523,26.0000003874302));
#1646=CARTESIAN_POINT('Origin',(0.,12.5,-29.9999993294477));
#1647=CARTESIAN_POINT('',(0.,12.5,-29.9999993294477));
#1648=CARTESIAN_POINT('',(0.,10.9999997541308,-29.));
#1649=CARTESIAN_POINT('',(0.,8.17307495903341,-27.1153850425814));
#1650=CARTESIAN_POINT('',(-3.,12.5,-29.9999993294477));
#1651=CARTESIAN_POINT('',(-0.750000011175871,12.5,-29.9999993294477));
#1652=CARTESIAN_POINT('',(-3.,10.9999997541308,-29.));
#1653=CARTESIAN_POINT('',(-3.00000004470348,8.40384411917635,-27.2692310209642));
#1654=CARTESIAN_POINT('',(-0.750000011175871,10.9999997541308,-29.));
#1655=CARTESIAN_POINT('Origin',(-1.50000002235174,12.5,-30.500000230968));
#1656=CARTESIAN_POINT('',(0.,12.5,-31.000000461936));
#1657=CARTESIAN_POINT('',(0.,12.5,-30.));
#1658=CARTESIAN_POINT('',(-3.00000004470348,12.5,-31.000000461936));
#1659=CARTESIAN_POINT('',(-39.0000005811453,12.5,-31.000000461936));
#1660=CARTESIAN_POINT('',(-3.00000004470348,12.5,-31.000000461936));
#1661=CARTESIAN_POINT('Origin',(0.,0.,-30.0000004470348));
#1662=CARTESIAN_POINT('',(0.,10.5000001564622,-29.));
#1663=CARTESIAN_POINT('',(0.,12.5,-29.));
#1664=CARTESIAN_POINT('',(0.,10.5000001564622,-30.));
#1665=CARTESIAN_POINT('',(0.,10.5000001564622,-30.));
#1666=CARTESIAN_POINT('',(0.,0.,-30.0000004470348));
#1667=CARTESIAN_POINT('',(0.,0.,-31.000000461936));
#1668=CARTESIAN_POINT('Origin',(0.,10.9999997541308,24.));
#1669=CARTESIAN_POINT('',(0.,10.9999997541308,24.));
#1670=CARTESIAN_POINT('',(0.,12.5,24.9999994412065));
#1671=CARTESIAN_POINT('',(0.,7.65384426075947,21.7692312832773));
#1672=CARTESIAN_POINT('',(-3.,10.9999997541308,24.));
#1673=CARTESIAN_POINT('',(-0.750000011175871,10.9999997541308,24.));
#1674=CARTESIAN_POINT('',(-3.,12.5,24.9999994412065));
#1675=CARTESIAN_POINT('',(-3.00000004470348,7.4230750906971,21.6153852810879));
#1676=CARTESIAN_POINT('',(-0.750000011175871,12.5,24.9999994412065));
#1677=CARTESIAN_POINT('Origin',(-1.50000002235174,12.5,25.5000001937151));
#1678=CARTESIAN_POINT('',(-3.00000004470348,12.5,26.0000003874302));
#1679=CARTESIAN_POINT('',(-3.00000004470348,12.5,25.));
#1680=CARTESIAN_POINT('',(0.,12.5,26.0000003874302));
#1681=CARTESIAN_POINT('',(36.0000005364418,12.5,26.0000003874302));
#1682=CARTESIAN_POINT('',(0.,12.5,26.0000003874302));
#1683=CARTESIAN_POINT('Origin',(-3.00000004470348,0.,25.000000372529));
#1684=CARTESIAN_POINT('',(-3.00000004470348,10.5000001564622,24.));
#1685=CARTESIAN_POINT('',(-3.00000004470348,12.5,24.));
#1686=CARTESIAN_POINT('',(-3.00000004470348,10.5000001564622,25.));
#1687=CARTESIAN_POINT('',(-3.00000004470348,10.5000001564622,25.));
#1688=CARTESIAN_POINT('',(-3.00000004470348,0.,25.000000372529));
#1689=CARTESIAN_POINT('',(-3.00000004470348,0.,26.0000003874302));
#1690=CARTESIAN_POINT('Origin',(0.,10.5000001564622,25.));
#1691=CARTESIAN_POINT('',(0.,10.5000001564622,25.));
#1692=CARTESIAN_POINT('',(0.,10.5000001564622,25.));
#1693=CARTESIAN_POINT('',(0.,10.5000001564622,24.));
#1694=CARTESIAN_POINT('',(-3.00000004470348,10.5000001564622,24.));
#1695=CARTESIAN_POINT('',(0.,10.5000001564622,25.));
#1696=CARTESIAN_POINT('Origin',(-1.50000002235174,11.5000000782311,24.));
#1697=CARTESIAN_POINT('',(0.,10.5000001564622,24.));
#1698=CARTESIAN_POINT('Origin',(0.,0.,25.));
#1699=CARTESIAN_POINT('',(0.,0.,25.));
#1700=CARTESIAN_POINT('Origin',(-3.00000004470348,10.5000001564622,-30.));
#1701=CARTESIAN_POINT('',(-3.00000004470348,10.5000001564622,-30.));
#1702=CARTESIAN_POINT('',(-3.00000004470348,10.5000001564622,-30.));
#1703=CARTESIAN_POINT('',(-3.00000004470348,10.5000001564622,-29.));
#1704=CARTESIAN_POINT('',(0.,10.5000001564622,-29.));
#1705=CARTESIAN_POINT('',(-3.00000004470348,10.5000001564622,-30.));
#1706=CARTESIAN_POINT('Origin',(-1.50000002235174,11.5000000782311,-29.));
#1707=CARTESIAN_POINT('',(-3.00000004470348,10.5000001564622,-29.));
#1708=CARTESIAN_POINT('Origin',(-3.00000004470348,0.,-30.));
#1709=CARTESIAN_POINT('',(-3.00000004470348,0.,-30.));
#1710=CARTESIAN_POINT('Origin',(-35.0000008940697,0.,25.));
#1711=CARTESIAN_POINT('',(-38.0000005662441,8.7,22.0000003278255));
#1712=CARTESIAN_POINT('',(-38.,0.,22.0000008940697));
#1713=CARTESIAN_POINT('',(-35.0000008940697,8.7,25.));
#1714=CARTESIAN_POINT('',(-38.0000005662441,8.7,22.0000003278255));
#1715=CARTESIAN_POINT('',(-35.0000008940697,0.,25.));
#1716=CARTESIAN_POINT('Origin',(-36.5000007301569,8.7,23.5000001639128));
#1717=CARTESIAN_POINT('',(-38.,8.7,25.));
#1718=CARTESIAN_POINT('',(-20.0000003259629,8.7,25.));
#1719=CARTESIAN_POINT('',(-38.,8.7,24.2500000819564));
#1720=CARTESIAN_POINT('Origin',(-3.4999999217689,0.,25.));
#1721=CARTESIAN_POINT('',(-38.,12.5,25.));
#1722=CARTESIAN_POINT('',(-38.,0.,25.));
#1723=CARTESIAN_POINT('',(-3.4999999217689,12.5,24.9999994412065));
#1724=CARTESIAN_POINT('',(-38.,12.5,25.));
#1725=CARTESIAN_POINT('',(-3.4999999217689,0.,24.9999994412065));
#1726=CARTESIAN_POINT('Origin',(32.0000004768372,0.,-30.0000004470348));
#1727=CARTESIAN_POINT('',(32.0000004768372,8.7,-30.0000004470348));
#1728=CARTESIAN_POINT('',(32.0000004768372,8.7,-30.0000004470348));
#1729=CARTESIAN_POINT('',(32.000000923872,0.,-30.));
#1730=CARTESIAN_POINT('Origin',(33.5000002384186,8.7,-28.5000006854534));
#1731=CARTESIAN_POINT('',(17.0000001136214,8.7,-30.));
#1732=CARTESIAN_POINT('Origin',(35.,0.,22.0000008493662));
#1733=CARTESIAN_POINT('',(32.0000004768372,8.7,25.000000372529));
#1734=CARTESIAN_POINT('',(32.0000008493662,0.,25.));
#1735=CARTESIAN_POINT('',(32.0000004768372,8.7,25.000000372529));
#1736=CARTESIAN_POINT('Origin',(33.5000002384186,8.7,23.5000006109476));
#1737=CARTESIAN_POINT('',(34.2500001192093,8.7,25.));
#1738=CARTESIAN_POINT('Origin',(-38.0000005662441,0.,-27.0000004023314));
#1739=CARTESIAN_POINT('',(-35.0000005215406,8.7,-30.0000004470348));
#1740=CARTESIAN_POINT('',(-35.0000009685755,0.,-30.));
#1741=CARTESIAN_POINT('',(-38.0000005662441,8.7,-27.0000004023314));
#1742=CARTESIAN_POINT('',(-35.0000005215406,8.7,-30.0000004470348));
#1743=CARTESIAN_POINT('',(-38.,0.,-27.0000009685755));
#1744=CARTESIAN_POINT('Origin',(-36.5000005438924,8.7,-28.5000004246831));
#1745=CARTESIAN_POINT('',(-38.,8.7,-30.));
#1746=CARTESIAN_POINT('',(-38.,8.7,-1.75000021234155));
#1747=CARTESIAN_POINT('',(-37.2500002719462,8.7,-30.));
#1748=CARTESIAN_POINT('Origin',(-38.,0.,25.));
#1749=CARTESIAN_POINT('',(-38.,12.5,-30.));
#1750=CARTESIAN_POINT('',(-38.,0.,-30.));
#1751=CARTESIAN_POINT('',(-38.,12.5,-30.));
#1752=CARTESIAN_POINT('Origin',(-3.00000004470348,0.,-31.000000461936));
#1753=CARTESIAN_POINT('',(-3.00000004470348,0.,-31.000000461936));
#1754=CARTESIAN_POINT('Origin',(0.,0.,26.0000003874302));
#1755=CARTESIAN_POINT('',(0.,0.,26.0000003874302));
#1756=CARTESIAN_POINT('Origin',(-3.4999999217689,0.,26.0000003874302));
#1757=CARTESIAN_POINT('',(-3.4999999217689,12.5,26.0000003874302));
#1758=CARTESIAN_POINT('',(-3.4999999217689,12.5,24.9999994412065));
#1759=CARTESIAN_POINT('',(-3.4999999217689,0.,26.0000003874302));
#1760=CARTESIAN_POINT('Origin',(-38.,0.,-30.));
#1761=CARTESIAN_POINT('',(-3.4999999217689,12.5,-30.));
#1762=CARTESIAN_POINT('',(-3.4999999217689,0.,-30.));
#1763=CARTESIAN_POINT('',(35.,12.5,-30.));
#1764=CARTESIAN_POINT('Origin',(-39.0000005811453,0.,-31.000000461936));
#1765=CARTESIAN_POINT('',(-39.0000005811453,0.,26.0000003874302));
#1766=CARTESIAN_POINT('',(-39.0000005811453,0.,-31.000000461936));
#1767=CARTESIAN_POINT('',(-39.0000005811453,0.,26.0000003874302));
#1768=CARTESIAN_POINT('',(-39.0000005811453,12.5,26.0000003874302));
#1769=CARTESIAN_POINT('',(-39.0000005811453,0.,26.0000003874302));
#1770=CARTESIAN_POINT('',(-39.0000005811453,12.5,-31.000000461936));
#1771=CARTESIAN_POINT('',(-39.0000005811453,12.5,26.0000003874302));
#1772=CARTESIAN_POINT('',(-39.0000005811453,0.,-31.000000461936));
#1773=CARTESIAN_POINT('Origin',(-3.4999999217689,0.,-30.));
#1774=CARTESIAN_POINT('',(-3.4999999217689,12.5,-30.999999307096));
#1775=CARTESIAN_POINT('',(-3.4999999217689,0.,-30.999999307096));
#1776=CARTESIAN_POINT('',(-3.4999999217689,12.5,-30.999999307096));
#1777=CARTESIAN_POINT('Origin',(-21.2500002514571,12.5,-2.5000000372529));
#1778=CARTESIAN_POINT('',(-39.0000005811453,12.5,-31.000000461936));
#1779=CARTESIAN_POINT('',(36.0000005364418,12.5,26.0000003874302));
#1780=CARTESIAN_POINT('Origin',(0.499999988824129,0.,-30.999999307096));
#1781=CARTESIAN_POINT('',(0.499999988824129,0.,-30.));
#1782=CARTESIAN_POINT('',(0.499999988824129,0.,-30.999999307096));
#1783=CARTESIAN_POINT('Origin',(35.,0.,25.));
#1784=CARTESIAN_POINT('',(0.499999988824129,12.5,24.9999994412065));
#1785=CARTESIAN_POINT('',(0.499999988824129,0.,24.9999994412065));
#1786=CARTESIAN_POINT('',(-38.,12.5,25.));
#1787=CARTESIAN_POINT('Origin',(0.499999988824129,0.,24.9999994412065));
#1788=CARTESIAN_POINT('',(0.499999988824129,12.5,26.0000003874302));
#1789=CARTESIAN_POINT('',(0.499999988824129,0.,26.0000003874302));
#1790=CARTESIAN_POINT('',(0.499999988824129,12.5,24.9999994412065));
#1791=CARTESIAN_POINT('Origin',(0.499999988824129,0.,-30.));
#1792=CARTESIAN_POINT('Origin',(36.0000005364418,0.,-31.000000461936));
#1793=CARTESIAN_POINT('',(36.0000005364418,0.,-31.000000461936));
#1794=CARTESIAN_POINT('',(-39.0000005811453,0.,-31.000000461936));
#1795=CARTESIAN_POINT('',(36.0000005364418,0.,-31.000000461936));
#1796=CARTESIAN_POINT('Origin',(36.0000005364418,0.,26.0000003874302));
#1797=CARTESIAN_POINT('',(36.0000005364418,12.5,26.0000003874302));
#1798=CARTESIAN_POINT('',(36.0000005364418,12.5,-31.000000461936));
#1799=CARTESIAN_POINT('',(36.0000005364418,0.,26.0000003874302));
#1800=CARTESIAN_POINT('',(36.0000005364418,0.,26.0000003874302));
#1801=CARTESIAN_POINT('',(36.0000005364418,0.,-31.000000461936));
#1802=CARTESIAN_POINT('Origin',(0.499999988824129,0.,26.0000003874302));
#1803=CARTESIAN_POINT('',(36.0000005364418,0.,26.0000003874302));
#1804=CARTESIAN_POINT('',(36.0000005364418,12.5,26.0000003874302));
#1805=CARTESIAN_POINT('Origin',(18.250000262633,12.5,-2.5000000372529));
#1806=CARTESIAN_POINT('Origin',(18.250000262633,0.,-2.5000000372529));
#1807=UNCERTAINTY_MEASURE_WITH_UNIT(LENGTH_MEASURE(0.01),#1811,
'DISTANCE_ACCURACY_VALUE',
'Maximum model space distance between geometric entities at asserted c
onnectivities');
#1808=UNCERTAINTY_MEASURE_WITH_UNIT(LENGTH_MEASURE(0.01),#1811,
'DISTANCE_ACCURACY_VALUE',
'Maximum model space distance between geometric entities at asserted c
onnectivities');
#1809=(
GEOMETRIC_REPRESENTATION_CONTEXT(3)
GLOBAL_UNCERTAINTY_ASSIGNED_CONTEXT((#1807))
GLOBAL_UNIT_ASSIGNED_CONTEXT((#1811,#1812,#1813))
REPRESENTATION_CONTEXT('','3D')
);
#1810=(
GEOMETRIC_REPRESENTATION_CONTEXT(3)
GLOBAL_UNCERTAINTY_ASSIGNED_CONTEXT((#1808))
GLOBAL_UNIT_ASSIGNED_CONTEXT((#1811,#1812,#1813))
REPRESENTATION_CONTEXT('','3D')
);
#1811=(
LENGTH_UNIT()
NAMED_UNIT(*)
SI_UNIT(.MILLI.,.METRE.)
);
#1812=(
NAMED_UNIT(*)
PLANE_ANGLE_UNIT()
SI_UNIT($,.RADIAN.)
);
#1813=(
NAMED_UNIT(*)
SI_UNIT($,.STERADIAN.)
SOLID_ANGLE_UNIT()
);
#1814=SHAPE_DEFINITION_REPRESENTATION(#1815,#1816);
#1815=PRODUCT_DEFINITION_SHAPE('',$,#1818);
#1816=SHAPE_REPRESENTATION('',(#1131),#1809);
#1817=PRODUCT_DEFINITION_CONTEXT('part definition',#1822,'design');
#1818=PRODUCT_DEFINITION('2026-01-01-22-55-22-758','krabka_BP_rev3',#1819,
#1817);
#1819=PRODUCT_DEFINITION_FORMATION('',$,#1824);
#1820=PRODUCT_RELATED_PRODUCT_CATEGORY('krabka_BP_rev3',
'krabka_BP_rev3',(#1824));
#1821=APPLICATION_PROTOCOL_DEFINITION('international standard',
'automotive_design',2009,#1822);
#1822=APPLICATION_CONTEXT(
'Core Data for Automotive Mechanical Design Process');
#1823=PRODUCT_CONTEXT('part definition',#1822,'mechanical');
#1824=PRODUCT('2026-01-01-22-55-22-758','krabka_BP_rev3',$,(#1823));
#1825=PRESENTATION_STYLE_ASSIGNMENT((#1828));
#1826=PRESENTATION_STYLE_ASSIGNMENT((#1829));
#1827=PRESENTATION_STYLE_ASSIGNMENT((#1830));
#1828=SURFACE_STYLE_USAGE(.BOTH.,#1831);
#1829=SURFACE_STYLE_USAGE(.BOTH.,#1832);
#1830=SURFACE_STYLE_USAGE(.BOTH.,#1833);
#1831=SURFACE_SIDE_STYLE('',(#1834));
#1832=SURFACE_SIDE_STYLE('',(#1835));
#1833=SURFACE_SIDE_STYLE('',(#1836));
#1834=SURFACE_STYLE_FILL_AREA(#1837);
#1835=SURFACE_STYLE_FILL_AREA(#1838);
#1836=SURFACE_STYLE_FILL_AREA(#1839);
#1837=FILL_AREA_STYLE('Steel - Satin',(#1840));
#1838=FILL_AREA_STYLE('Opaque(120,110,70)',(#1841));
#1839=FILL_AREA_STYLE('Opaque(215,15,15)',(#1842));
#1840=FILL_AREA_STYLE_COLOUR('Steel - Satin',#1843);
#1841=FILL_AREA_STYLE_COLOUR('Opaque(120,110,70)',#1844);
#1842=FILL_AREA_STYLE_COLOUR('Opaque(215,15,15)',#1845);
#1843=COLOUR_RGB('Steel - Satin',0.627450980392157,0.627450980392157,0.627450980392157);
#1844=COLOUR_RGB('Opaque(120,110,70)',0.470588235294118,0.431372549019608,
0.274509803921569);
#1845=COLOUR_RGB('Opaque(215,15,15)',0.843137254901961,0.0588235294117647,
0.0588235294117647);
ENDSEC;
END-ISO-10303-21;
