ISO-10303-21;
HEADER;
/* Generated by software containing ST-Developer
 * from STEP Tools, Inc. (www.steptools.com) 
 */

FILE_DESCRIPTION(
/* description */ (''),
/* implementation_level */ '2;1');

FILE_NAME(
/* name */ 'hmatnik_on_off.step',
/* time_stamp */ '2026-05-28T13:15:20+02:00',
/* author */ (''),
/* organization */ (''),
/* preprocessor_version */ 'ST-DEVELOPER v20.1',
/* originating_system */ 'Autodesk Translation Framework v15.8.0.0',
/* authorisation */ '');

FILE_SCHEMA (('AUTOMOTIVE_DESIGN { 1 0 10303 214 3 1 1 }'));
ENDSEC;

DATA;
#10=MECHANICAL_DESIGN_GEOMETRIC_PRESENTATION_REPRESENTATION('',(#13),#419);
#11=SHAPE_REPRESENTATION_RELATIONSHIP('SRR','None',#426,#12);
#12=ADVANCED_BREP_SHAPE_REPRESENTATION('',(#14),#418);
#13=STYLED_ITEM('',(#435),#14);
#14=MANIFOLD_SOLID_BREP('Body1',#243);
#15=FACE_BOUND('',#56,.T.);
#16=FACE_BOUND('',#61,.T.);
#17=FACE_BOUND('',#62,.T.);
#18=CIRCLE('',#264,1.75);
#19=CIRCLE('',#265,1.75);
#20=CIRCLE('',#268,2.75);
#21=CIRCLE('',#269,2.75);
#22=CIRCLE('',#272,5.);
#23=CIRCLE('',#273,3.75);
#24=CIRCLE('',#275,5.);
#25=CIRCLE('',#278,3.75);
#26=CYLINDRICAL_SURFACE('',#263,1.75);
#27=CYLINDRICAL_SURFACE('',#267,2.75);
#28=CYLINDRICAL_SURFACE('',#274,5.);
#29=CYLINDRICAL_SURFACE('',#277,3.75);
#30=FACE_OUTER_BOUND('',#45,.T.);
#31=FACE_OUTER_BOUND('',#46,.T.);
#32=FACE_OUTER_BOUND('',#47,.T.);
#33=FACE_OUTER_BOUND('',#48,.T.);
#34=FACE_OUTER_BOUND('',#49,.T.);
#35=FACE_OUTER_BOUND('',#50,.T.);
#36=FACE_OUTER_BOUND('',#51,.T.);
#37=FACE_OUTER_BOUND('',#52,.T.);
#38=FACE_OUTER_BOUND('',#53,.T.);
#39=FACE_OUTER_BOUND('',#54,.T.);
#40=FACE_OUTER_BOUND('',#55,.T.);
#41=FACE_OUTER_BOUND('',#57,.T.);
#42=FACE_OUTER_BOUND('',#58,.T.);
#43=FACE_OUTER_BOUND('',#59,.T.);
#44=FACE_OUTER_BOUND('',#60,.T.);
#45=EDGE_LOOP('',(#157,#158,#159,#160));
#46=EDGE_LOOP('',(#161,#162,#163,#164));
#47=EDGE_LOOP('',(#165,#166,#167,#168));
#48=EDGE_LOOP('',(#169,#170,#171,#172));
#49=EDGE_LOOP('',(#173,#174,#175,#176));
#50=EDGE_LOOP('',(#177,#178,#179,#180));
#51=EDGE_LOOP('',(#181,#182,#183,#184));
#52=EDGE_LOOP('',(#185,#186,#187,#188));
#53=EDGE_LOOP('',(#189,#190,#191,#192));
#54=EDGE_LOOP('',(#193,#194,#195,#196));
#55=EDGE_LOOP('',(#197));
#56=EDGE_LOOP('',(#198));
#57=EDGE_LOOP('',(#199,#200,#201,#202));
#58=EDGE_LOOP('',(#203));
#59=EDGE_LOOP('',(#204,#205,#206,#207));
#60=EDGE_LOOP('',(#208));
#61=EDGE_LOOP('',(#209,#210,#211,#212));
#62=EDGE_LOOP('',(#213,#214,#215,#216));
#63=LINE('',#354,#85);
#64=LINE('',#356,#86);
#65=LINE('',#358,#87);
#66=LINE('',#359,#88);
#67=LINE('',#362,#89);
#68=LINE('',#364,#90);
#69=LINE('',#365,#91);
#70=LINE('',#368,#92);
#71=LINE('',#370,#93);
#72=LINE('',#371,#94);
#73=LINE('',#373,#95);
#74=LINE('',#374,#96);
#75=LINE('',#379,#97);
#76=LINE('',#381,#98);
#77=LINE('',#383,#99);
#78=LINE('',#384,#100);
#79=LINE('',#389,#101);
#80=LINE('',#393,#102);
#81=LINE('',#395,#103);
#82=LINE('',#396,#104);
#83=LINE('',#409,#105);
#84=LINE('',#414,#106);
#85=VECTOR('',#284,10.);
#86=VECTOR('',#285,10.);
#87=VECTOR('',#286,10.);
#88=VECTOR('',#287,10.);
#89=VECTOR('',#290,10.);
#90=VECTOR('',#291,10.);
#91=VECTOR('',#292,10.);
#92=VECTOR('',#295,10.);
#93=VECTOR('',#296,10.);
#94=VECTOR('',#297,10.);
#95=VECTOR('',#300,10.);
#96=VECTOR('',#301,10.);
#97=VECTOR('',#306,10.);
#98=VECTOR('',#307,10.);
#99=VECTOR('',#308,10.);
#100=VECTOR('',#309,10.);
#101=VECTOR('',#314,10.);
#102=VECTOR('',#319,10.);
#103=VECTOR('',#320,10.);
#104=VECTOR('',#321,10.);
#105=VECTOR('',#340,5.);
#106=VECTOR('',#347,3.75);
#107=VERTEX_POINT('',#352);
#108=VERTEX_POINT('',#353);
#109=VERTEX_POINT('',#355);
#110=VERTEX_POINT('',#357);
#111=VERTEX_POINT('',#361);
#112=VERTEX_POINT('',#363);
#113=VERTEX_POINT('',#367);
#114=VERTEX_POINT('',#369);
#115=VERTEX_POINT('',#377);
#116=VERTEX_POINT('',#378);
#117=VERTEX_POINT('',#380);
#118=VERTEX_POINT('',#382);
#119=VERTEX_POINT('',#386);
#120=VERTEX_POINT('',#388);
#121=VERTEX_POINT('',#392);
#122=VERTEX_POINT('',#394);
#123=VERTEX_POINT('',#402);
#124=VERTEX_POINT('',#404);
#125=VERTEX_POINT('',#407);
#126=VERTEX_POINT('',#412);
#127=EDGE_CURVE('',#107,#108,#63,.T.);
#128=EDGE_CURVE('',#107,#109,#64,.T.);
#129=EDGE_CURVE('',#109,#110,#65,.T.);
#130=EDGE_CURVE('',#108,#110,#66,.T.);
#131=EDGE_CURVE('',#111,#107,#67,.T.);
#132=EDGE_CURVE('',#111,#112,#68,.T.);
#133=EDGE_CURVE('',#112,#109,#69,.T.);
#134=EDGE_CURVE('',#113,#111,#70,.T.);
#135=EDGE_CURVE('',#113,#114,#71,.T.);
#136=EDGE_CURVE('',#114,#112,#72,.T.);
#137=EDGE_CURVE('',#108,#113,#73,.T.);
#138=EDGE_CURVE('',#110,#114,#74,.T.);
#139=EDGE_CURVE('',#115,#116,#75,.T.);
#140=EDGE_CURVE('',#115,#117,#76,.T.);
#141=EDGE_CURVE('',#117,#118,#77,.T.);
#142=EDGE_CURVE('',#116,#118,#78,.T.);
#143=EDGE_CURVE('',#119,#115,#18,.T.);
#144=EDGE_CURVE('',#119,#120,#79,.T.);
#145=EDGE_CURVE('',#120,#117,#19,.T.);
#146=EDGE_CURVE('',#121,#119,#80,.T.);
#147=EDGE_CURVE('',#121,#122,#81,.T.);
#148=EDGE_CURVE('',#122,#120,#82,.T.);
#149=EDGE_CURVE('',#116,#121,#20,.T.);
#150=EDGE_CURVE('',#118,#122,#21,.T.);
#151=EDGE_CURVE('',#123,#123,#22,.T.);
#152=EDGE_CURVE('',#124,#124,#23,.T.);
#153=EDGE_CURVE('',#125,#125,#24,.T.);
#154=EDGE_CURVE('',#125,#123,#83,.T.);
#155=EDGE_CURVE('',#126,#126,#25,.T.);
#156=EDGE_CURVE('',#126,#124,#84,.T.);
#157=ORIENTED_EDGE('',*,*,#127,.F.);
#158=ORIENTED_EDGE('',*,*,#128,.T.);
#159=ORIENTED_EDGE('',*,*,#129,.T.);
#160=ORIENTED_EDGE('',*,*,#130,.F.);
#161=ORIENTED_EDGE('',*,*,#131,.F.);
#162=ORIENTED_EDGE('',*,*,#132,.T.);
#163=ORIENTED_EDGE('',*,*,#133,.T.);
#164=ORIENTED_EDGE('',*,*,#128,.F.);
#165=ORIENTED_EDGE('',*,*,#134,.F.);
#166=ORIENTED_EDGE('',*,*,#135,.T.);
#167=ORIENTED_EDGE('',*,*,#136,.T.);
#168=ORIENTED_EDGE('',*,*,#132,.F.);
#169=ORIENTED_EDGE('',*,*,#137,.F.);
#170=ORIENTED_EDGE('',*,*,#130,.T.);
#171=ORIENTED_EDGE('',*,*,#138,.T.);
#172=ORIENTED_EDGE('',*,*,#135,.F.);
#173=ORIENTED_EDGE('',*,*,#138,.F.);
#174=ORIENTED_EDGE('',*,*,#129,.F.);
#175=ORIENTED_EDGE('',*,*,#133,.F.);
#176=ORIENTED_EDGE('',*,*,#136,.F.);
#177=ORIENTED_EDGE('',*,*,#139,.F.);
#178=ORIENTED_EDGE('',*,*,#140,.T.);
#179=ORIENTED_EDGE('',*,*,#141,.T.);
#180=ORIENTED_EDGE('',*,*,#142,.F.);
#181=ORIENTED_EDGE('',*,*,#143,.F.);
#182=ORIENTED_EDGE('',*,*,#144,.T.);
#183=ORIENTED_EDGE('',*,*,#145,.T.);
#184=ORIENTED_EDGE('',*,*,#140,.F.);
#185=ORIENTED_EDGE('',*,*,#146,.F.);
#186=ORIENTED_EDGE('',*,*,#147,.T.);
#187=ORIENTED_EDGE('',*,*,#148,.T.);
#188=ORIENTED_EDGE('',*,*,#144,.F.);
#189=ORIENTED_EDGE('',*,*,#149,.F.);
#190=ORIENTED_EDGE('',*,*,#142,.T.);
#191=ORIENTED_EDGE('',*,*,#150,.T.);
#192=ORIENTED_EDGE('',*,*,#147,.F.);
#193=ORIENTED_EDGE('',*,*,#150,.F.);
#194=ORIENTED_EDGE('',*,*,#141,.F.);
#195=ORIENTED_EDGE('',*,*,#145,.F.);
#196=ORIENTED_EDGE('',*,*,#148,.F.);
#197=ORIENTED_EDGE('',*,*,#151,.F.);
#198=ORIENTED_EDGE('',*,*,#152,.F.);
#199=ORIENTED_EDGE('',*,*,#153,.F.);
#200=ORIENTED_EDGE('',*,*,#154,.T.);
#201=ORIENTED_EDGE('',*,*,#151,.T.);
#202=ORIENTED_EDGE('',*,*,#154,.F.);
#203=ORIENTED_EDGE('',*,*,#153,.T.);
#204=ORIENTED_EDGE('',*,*,#155,.F.);
#205=ORIENTED_EDGE('',*,*,#156,.T.);
#206=ORIENTED_EDGE('',*,*,#152,.T.);
#207=ORIENTED_EDGE('',*,*,#156,.F.);
#208=ORIENTED_EDGE('',*,*,#155,.T.);
#209=ORIENTED_EDGE('',*,*,#127,.T.);
#210=ORIENTED_EDGE('',*,*,#137,.T.);
#211=ORIENTED_EDGE('',*,*,#134,.T.);
#212=ORIENTED_EDGE('',*,*,#131,.T.);
#213=ORIENTED_EDGE('',*,*,#139,.T.);
#214=ORIENTED_EDGE('',*,*,#149,.T.);
#215=ORIENTED_EDGE('',*,*,#146,.T.);
#216=ORIENTED_EDGE('',*,*,#143,.T.);
#217=PLANE('',#257);
#218=PLANE('',#258);
#219=PLANE('',#259);
#220=PLANE('',#260);
#221=PLANE('',#261);
#222=PLANE('',#262);
#223=PLANE('',#266);
#224=PLANE('',#270);
#225=PLANE('',#271);
#226=PLANE('',#276);
#227=PLANE('',#279);
#228=ADVANCED_FACE('',(#30),#217,.F.);
#229=ADVANCED_FACE('',(#31),#218,.F.);
#230=ADVANCED_FACE('',(#32),#219,.F.);
#231=ADVANCED_FACE('',(#33),#220,.F.);
#232=ADVANCED_FACE('',(#34),#221,.F.);
#233=ADVANCED_FACE('',(#35),#222,.F.);
#234=ADVANCED_FACE('',(#36),#26,.T.);
#235=ADVANCED_FACE('',(#37),#223,.F.);
#236=ADVANCED_FACE('',(#38),#27,.F.);
#237=ADVANCED_FACE('',(#39),#224,.T.);
#238=ADVANCED_FACE('',(#40,#15),#225,.F.);
#239=ADVANCED_FACE('',(#41),#28,.T.);
#240=ADVANCED_FACE('',(#42),#226,.T.);
#241=ADVANCED_FACE('',(#43),#29,.T.);
#242=ADVANCED_FACE('',(#44,#16,#17),#227,.T.);
#243=CLOSED_SHELL('',(#228,#229,#230,#231,#232,#233,#234,#235,#236,#237,
#238,#239,#240,#241,#242));
#244=DERIVED_UNIT_ELEMENT(#246,1.);
#245=DERIVED_UNIT_ELEMENT(#421,-3.);
#246=(
MASS_UNIT()
NAMED_UNIT(*)
SI_UNIT(.KILO.,.GRAM.)
);
#247=DERIVED_UNIT((#244,#245));
#248=MEASURE_REPRESENTATION_ITEM('density measure',
POSITIVE_RATIO_MEASURE(7850.),#247);
#249=PROPERTY_DEFINITION_REPRESENTATION(#254,#251);
#250=PROPERTY_DEFINITION_REPRESENTATION(#255,#252);
#251=REPRESENTATION('material name',(#253),#418);
#252=REPRESENTATION('density',(#248),#418);
#253=DESCRIPTIVE_REPRESENTATION_ITEM('Steel','Steel');
#254=PROPERTY_DEFINITION('material property','material name',#428);
#255=PROPERTY_DEFINITION('material property','density of part',#428);
#256=AXIS2_PLACEMENT_3D('',#350,#280,#281);
#257=AXIS2_PLACEMENT_3D('',#351,#282,#283);
#258=AXIS2_PLACEMENT_3D('',#360,#288,#289);
#259=AXIS2_PLACEMENT_3D('',#366,#293,#294);
#260=AXIS2_PLACEMENT_3D('',#372,#298,#299);
#261=AXIS2_PLACEMENT_3D('',#375,#302,#303);
#262=AXIS2_PLACEMENT_3D('',#376,#304,#305);
#263=AXIS2_PLACEMENT_3D('',#385,#310,#311);
#264=AXIS2_PLACEMENT_3D('',#387,#312,#313);
#265=AXIS2_PLACEMENT_3D('',#390,#315,#316);
#266=AXIS2_PLACEMENT_3D('',#391,#317,#318);
#267=AXIS2_PLACEMENT_3D('',#397,#322,#323);
#268=AXIS2_PLACEMENT_3D('',#398,#324,#325);
#269=AXIS2_PLACEMENT_3D('',#399,#326,#327);
#270=AXIS2_PLACEMENT_3D('',#400,#328,#329);
#271=AXIS2_PLACEMENT_3D('',#401,#330,#331);
#272=AXIS2_PLACEMENT_3D('',#403,#332,#333);
#273=AXIS2_PLACEMENT_3D('',#405,#334,#335);
#274=AXIS2_PLACEMENT_3D('',#406,#336,#337);
#275=AXIS2_PLACEMENT_3D('',#408,#338,#339);
#276=AXIS2_PLACEMENT_3D('',#410,#341,#342);
#277=AXIS2_PLACEMENT_3D('',#411,#343,#344);
#278=AXIS2_PLACEMENT_3D('',#413,#345,#346);
#279=AXIS2_PLACEMENT_3D('',#415,#348,#349);
#280=DIRECTION('axis',(0.,0.,1.));
#281=DIRECTION('refdir',(1.,0.,0.));
#282=DIRECTION('center_axis',(1.,0.,0.));
#283=DIRECTION('ref_axis',(0.,0.,1.));
#284=DIRECTION('',(0.,0.,1.));
#285=DIRECTION('',(0.,-1.,0.));
#286=DIRECTION('',(0.,0.,1.));
#287=DIRECTION('',(0.,-1.,0.));
#288=DIRECTION('center_axis',(0.,0.,-1.));
#289=DIRECTION('ref_axis',(1.,0.,0.));
#290=DIRECTION('',(1.,0.,0.));
#291=DIRECTION('',(0.,-1.,0.));
#292=DIRECTION('',(1.,0.,0.));
#293=DIRECTION('center_axis',(-1.,0.,0.));
#294=DIRECTION('ref_axis',(0.,0.,-1.));
#295=DIRECTION('',(0.,0.,-1.));
#296=DIRECTION('',(0.,-1.,0.));
#297=DIRECTION('',(0.,0.,-1.));
#298=DIRECTION('center_axis',(0.,0.,1.));
#299=DIRECTION('ref_axis',(-1.,0.,0.));
#300=DIRECTION('',(-1.,0.,0.));
#301=DIRECTION('',(-1.,0.,0.));
#302=DIRECTION('center_axis',(0.,-1.,0.));
#303=DIRECTION('ref_axis',(0.,0.,-1.));
#304=DIRECTION('center_axis',(-0.707106781186548,0.,-0.707106781186548));
#305=DIRECTION('ref_axis',(0.707106781186548,0.,-0.707106781186548));
#306=DIRECTION('',(0.707106781186548,0.,-0.707106781186548));
#307=DIRECTION('',(0.,-1.,0.));
#308=DIRECTION('',(0.707106781186547,0.,-0.707106781186547));
#309=DIRECTION('',(0.,-1.,0.));
#310=DIRECTION('center_axis',(0.,-1.,0.));
#311=DIRECTION('ref_axis',(1.83697019872103E-16,0.,1.));
#312=DIRECTION('center_axis',(0.,1.,0.));
#313=DIRECTION('ref_axis',(-1.,0.,0.));
#314=DIRECTION('',(0.,-1.,0.));
#315=DIRECTION('center_axis',(0.,1.,0.));
#316=DIRECTION('ref_axis',(-1.,0.,0.));
#317=DIRECTION('center_axis',(0.707106781186548,0.,-0.707106781186548));
#318=DIRECTION('ref_axis',(0.707106781186548,0.,0.707106781186548));
#319=DIRECTION('',(0.707106781186548,0.,0.707106781186548));
#320=DIRECTION('',(0.,-1.,0.));
#321=DIRECTION('',(0.707106781186547,0.,0.707106781186547));
#322=DIRECTION('center_axis',(0.,-1.,0.));
#323=DIRECTION('ref_axis',(1.83697019872103E-16,0.,1.));
#324=DIRECTION('center_axis',(0.,-1.,0.));
#325=DIRECTION('ref_axis',(-1.,0.,0.));
#326=DIRECTION('center_axis',(0.,-1.,0.));
#327=DIRECTION('ref_axis',(-1.,0.,0.));
#328=DIRECTION('center_axis',(0.,1.,0.));
#329=DIRECTION('ref_axis',(-1.,0.,0.));
#330=DIRECTION('center_axis',(0.,-1.,0.));
#331=DIRECTION('ref_axis',(1.,0.,0.));
#332=DIRECTION('center_axis',(0.,-1.,0.));
#333=DIRECTION('ref_axis',(1.,0.,0.));
#334=DIRECTION('center_axis',(0.,1.,0.));
#335=DIRECTION('ref_axis',(1.,0.,0.));
#336=DIRECTION('center_axis',(0.,-1.,0.));
#337=DIRECTION('ref_axis',(1.,0.,0.));
#338=DIRECTION('center_axis',(0.,-1.,0.));
#339=DIRECTION('ref_axis',(1.,0.,0.));
#340=DIRECTION('',(0.,1.,0.));
#341=DIRECTION('center_axis',(0.,-1.,0.));
#342=DIRECTION('ref_axis',(1.,0.,0.));
#343=DIRECTION('center_axis',(0.,1.,0.));
#344=DIRECTION('ref_axis',(1.,0.,0.));
#345=DIRECTION('center_axis',(0.,1.,0.));
#346=DIRECTION('ref_axis',(1.,0.,0.));
#347=DIRECTION('',(0.,-1.,0.));
#348=DIRECTION('center_axis',(0.,1.,0.));
#349=DIRECTION('ref_axis',(1.,0.,0.));
#350=CARTESIAN_POINT('',(0.,0.,0.));
#351=CARTESIAN_POINT('Origin',(0.500000007450581,2.,-3.00000004470348));
#352=CARTESIAN_POINT('',(0.500000007450581,2.,-3.00000004470348));
#353=CARTESIAN_POINT('',(0.500000007450581,2.,-0.500000007450581));
#354=CARTESIAN_POINT('',(0.500000007450581,2.,-1.50000002235174));
#355=CARTESIAN_POINT('',(0.500000007450581,1.,-3.00000004470348));
#356=CARTESIAN_POINT('',(0.500000007450581,2.,-3.00000004470348));
#357=CARTESIAN_POINT('',(0.500000007450581,1.,-0.500000007450581));
#358=CARTESIAN_POINT('',(0.500000007450581,1.,-3.00000004470348));
#359=CARTESIAN_POINT('',(0.500000007450581,2.,-0.500000007450581));
#360=CARTESIAN_POINT('Origin',(-0.500000007450581,2.,-3.00000004470348));
#361=CARTESIAN_POINT('',(-0.500000007450581,2.,-3.00000004470348));
#362=CARTESIAN_POINT('',(-0.25000000372529,2.,-3.00000004470348));
#363=CARTESIAN_POINT('',(-0.500000007450581,1.,-3.00000004470348));
#364=CARTESIAN_POINT('',(-0.500000007450581,2.,-3.00000004470348));
#365=CARTESIAN_POINT('',(-0.500000007450581,1.,-3.00000004470348));
#366=CARTESIAN_POINT('Origin',(-0.500000007450581,2.,-0.500000007450581));
#367=CARTESIAN_POINT('',(-0.500000007450581,2.,-0.500000007450581));
#368=CARTESIAN_POINT('',(-0.500000007450581,2.,-0.25000000372529));
#369=CARTESIAN_POINT('',(-0.500000007450581,1.,-0.500000007450581));
#370=CARTESIAN_POINT('',(-0.500000007450581,2.,-0.500000007450581));
#371=CARTESIAN_POINT('',(-0.500000007450581,1.,-0.500000007450581));
#372=CARTESIAN_POINT('Origin',(0.500000007450581,2.,-0.500000007450581));
#373=CARTESIAN_POINT('',(0.25000000372529,2.,-0.500000007450581));
#374=CARTESIAN_POINT('',(0.500000007450581,1.,-0.500000007450581));
#375=CARTESIAN_POINT('Origin',(0.,1.,-1.75000002607703));
#376=CARTESIAN_POINT('Origin',(1.23743686707646,2.,-1.23743686707646));
#377=CARTESIAN_POINT('',(1.23743686707646,2.,-1.23743686707646));
#378=CARTESIAN_POINT('',(1.94454364826301,2.,-1.94454364826301));
#379=CARTESIAN_POINT('',(0.618718433538229,2.,-0.618718433538229));
#380=CARTESIAN_POINT('',(1.23743686707646,1.,-1.23743686707646));
#381=CARTESIAN_POINT('',(1.23743686707646,2.,-1.23743686707646));
#382=CARTESIAN_POINT('',(1.94454364826301,1.,-1.94454364826301));
#383=CARTESIAN_POINT('',(1.00000001490116,1.,-1.00000001490116));
#384=CARTESIAN_POINT('',(1.94454364826301,2.,-1.94454364826301));
#385=CARTESIAN_POINT('Origin',(0.,2.,0.));
#386=CARTESIAN_POINT('',(-1.23743686707646,2.,-1.23743686707646));
#387=CARTESIAN_POINT('Origin',(0.,2.,0.));
#388=CARTESIAN_POINT('',(-1.23743686707646,1.,-1.23743686707646));
#389=CARTESIAN_POINT('',(-1.23743686707646,2.,-1.23743686707646));
#390=CARTESIAN_POINT('Origin',(0.,1.,0.));
#391=CARTESIAN_POINT('Origin',(-1.94454364826301,2.,-1.94454364826301));
#392=CARTESIAN_POINT('',(-1.94454364826301,2.,-1.94454364826301));
#393=CARTESIAN_POINT('',(-0.972271824131503,2.,-0.972271824131503));
#394=CARTESIAN_POINT('',(-1.94454364826301,1.,-1.94454364826301));
#395=CARTESIAN_POINT('',(-1.94454364826301,2.,-1.94454364826301));
#396=CARTESIAN_POINT('',(-1.00000001490116,1.,-1.00000001490116));
#397=CARTESIAN_POINT('Origin',(0.,2.,0.));
#398=CARTESIAN_POINT('Origin',(0.,2.,0.));
#399=CARTESIAN_POINT('Origin',(0.,1.,0.));
#400=CARTESIAN_POINT('Origin',(0.,1.,0.402728175868497));
#401=CARTESIAN_POINT('Origin',(0.,0.,0.));
#402=CARTESIAN_POINT('',(-5.,0.,-6.12323399573677E-16));
#403=CARTESIAN_POINT('Origin',(0.,0.,0.));
#404=CARTESIAN_POINT('',(-3.75,0.,4.59242549680257E-16));
#405=CARTESIAN_POINT('Origin',(0.,0.,0.));
#406=CARTESIAN_POINT('Origin',(0.,0.,0.));
#407=CARTESIAN_POINT('',(-5.,-2.,-6.12323399573677E-16));
#408=CARTESIAN_POINT('Origin',(0.,-2.,0.));
#409=CARTESIAN_POINT('',(-5.,0.,-6.12323399573677E-16));
#410=CARTESIAN_POINT('Origin',(0.,-2.,0.));
#411=CARTESIAN_POINT('Origin',(0.,0.,0.));
#412=CARTESIAN_POINT('',(-3.75,2.,4.59242549680257E-16));
#413=CARTESIAN_POINT('Origin',(0.,2.,0.));
#414=CARTESIAN_POINT('',(-3.75,0.,4.59242549680257E-16));
#415=CARTESIAN_POINT('Origin',(0.,2.,0.));
#416=UNCERTAINTY_MEASURE_WITH_UNIT(LENGTH_MEASURE(0.01),#420,
'DISTANCE_ACCURACY_VALUE',
'Maximum model space distance between geometric entities at asserted c
onnectivities');
#417=UNCERTAINTY_MEASURE_WITH_UNIT(LENGTH_MEASURE(0.01),#420,
'DISTANCE_ACCURACY_VALUE',
'Maximum model space distance between geometric entities at asserted c
onnectivities');
#418=(
GEOMETRIC_REPRESENTATION_CONTEXT(3)
GLOBAL_UNCERTAINTY_ASSIGNED_CONTEXT((#416))
GLOBAL_UNIT_ASSIGNED_CONTEXT((#420,#422,#423))
REPRESENTATION_CONTEXT('','3D')
);
#419=(
GEOMETRIC_REPRESENTATION_CONTEXT(3)
GLOBAL_UNCERTAINTY_ASSIGNED_CONTEXT((#417))
GLOBAL_UNIT_ASSIGNED_CONTEXT((#420,#422,#423))
REPRESENTATION_CONTEXT('','3D')
);
#420=(
LENGTH_UNIT()
NAMED_UNIT(*)
SI_UNIT(.MILLI.,.METRE.)
);
#421=(
LENGTH_UNIT()
NAMED_UNIT(*)
SI_UNIT($,.METRE.)
);
#422=(
NAMED_UNIT(*)
PLANE_ANGLE_UNIT()
SI_UNIT($,.RADIAN.)
);
#423=(
NAMED_UNIT(*)
SI_UNIT($,.STERADIAN.)
SOLID_ANGLE_UNIT()
);
#424=SHAPE_DEFINITION_REPRESENTATION(#425,#426);
#425=PRODUCT_DEFINITION_SHAPE('',$,#428);
#426=SHAPE_REPRESENTATION('',(#256),#418);
#427=PRODUCT_DEFINITION_CONTEXT('part definition',#432,'design');
#428=PRODUCT_DEFINITION('2026-05-26-09-42-57-473','hmatnik_on_off',#429,
#427);
#429=PRODUCT_DEFINITION_FORMATION('',$,#434);
#430=PRODUCT_RELATED_PRODUCT_CATEGORY('hmatnik_on_off','hmatnik_on_off',
(#434));
#431=APPLICATION_PROTOCOL_DEFINITION('international standard',
'automotive_design',2009,#432);
#432=APPLICATION_CONTEXT(
'Core Data for Automotive Mechanical Design Process');
#433=PRODUCT_CONTEXT('part definition',#432,'mechanical');
#434=PRODUCT('2026-05-26-09-42-57-473','hmatnik_on_off',$,(#433));
#435=PRESENTATION_STYLE_ASSIGNMENT((#436));
#436=SURFACE_STYLE_USAGE(.BOTH.,#437);
#437=SURFACE_SIDE_STYLE('',(#438));
#438=SURFACE_STYLE_FILL_AREA(#439);
#439=FILL_AREA_STYLE('Steel - Satin',(#440));
#440=FILL_AREA_STYLE_COLOUR('Steel - Satin',#441);
#441=COLOUR_RGB('Steel - Satin',0.627450980392157,0.627450980392157,0.627450980392157);
ENDSEC;
END-ISO-10303-21;
